<?xml version="1.0" encoding="UTF-8"?>
<svg version="1.1" xmlns="http://www.w3.org/2000/svg" width="1254" height="1254">
<path d="M0 0 C413.82 0 827.64 0 1254 0 C1254 413.82 1254 827.64 1254 1254 C840.18 1254 426.36 1254 0 1254 C0 840.18 0 426.36 0 0 Z " fill="#F9E9D2" transform="translate(0,0)"/>
<path d="M0 0 C36.37945434 18.60895785 72.35589964 46.12244641 97.38696289 78.64428711 C99.58832045 81.44916519 101.88591542 84.14964282 104.203125 86.859375 C109.39525979 93.0284031 113.96018841 99.55089291 118.38671875 106.2890625 C118.96599625 107.16570557 118.96599625 107.16570557 119.55697632 108.06005859 C159.32255243 168.32496309 179.8278181 236.89928318 179.609375 308.97265625 C179.60750471 310.81209779 179.6060837 312.65153984 179.60508728 314.49098206 C179.60131014 319.2797285 179.59152223 324.06844352 179.5803833 328.85717773 C179.57006457 333.76480688 179.56556748 338.67244121 179.56054688 343.58007812 C179.54989453 353.17058655 179.53287752 362.76107189 179.51171875 372.3515625 C187.46623577 370.28376065 191.20271393 366.63191389 195.3203125 359.6875 C199.03947568 352.39550137 200.7141099 344.73830745 202.01171875 336.7265625 C203.54861019 327.24435088 205.5633728 317.83756092 213.625 311.7578125 C222.01542991 305.93532104 229.43375424 305.48688507 239.51171875 306.3515625 C263.6549311 312.65593762 280.26747453 338.66908603 292.20288086 358.82885742 C298.1621028 369.06710297 303.95049812 379.40718114 308.51171875 390.3515625 C308.89972656 391.24617188 309.28773438 392.14078125 309.6875 393.0625 C318.92961044 414.72270386 325.46041848 437.26309914 329.07373047 460.53955078 C329.35895423 462.37076998 329.65682895 464.20007777 329.96923828 466.02685547 C335.2539851 497.50159892 334.97533085 532.51990897 329.87036133 564.0168457 C329.50711627 566.38152402 329.24002179 568.74137432 328.99609375 571.12109375 C328.37032751 576.99436615 326.91103136 582.62134568 325.51171875 588.3515625 C325.25777344 589.48722656 325.00382813 590.62289062 324.7421875 591.79296875 C320.3697785 610.62028241 314.15574556 629.06350889 305.51171875 646.3515625 C304.87556641 647.89070312 304.87556641 647.89070312 304.2265625 649.4609375 C297.84079493 664.56893186 289.22585448 679.33466055 279.70166016 692.68359375 C278.45018962 694.43780932 277.22049435 696.20606411 275.9921875 697.9765625 C270.82072073 705.38181699 265.35453487 712.45835247 259.51171875 719.3515625 C258.60676326 720.44400414 257.70181575 721.5364524 256.796875 722.62890625 C250.18485155 730.51729786 243.14289059 737.92797945 235.88671875 745.2265625 C235.02852539 746.09394043 234.17033203 746.96131836 233.28613281 747.85498047 C227.33760714 753.77517983 221.08435136 759.13838652 214.51171875 764.3515625 C213.3198954 765.31719376 212.12842121 766.28325634 210.9375 767.25 C202.40142111 774.04030617 193.6050824 780.3294993 184.51171875 786.3515625 C183.5371875 787.00382813 182.56265625 787.65609375 181.55859375 788.328125 C163.20051719 800.11541459 143.1922293 809.40919308 122.93359375 817.38964844 C120.9585428 818.17409408 118.99831648 818.99578104 117.04296875 819.828125 C71.44237013 838.82837442 15.24803241 843.26237345 -33.48828125 836.3515625 C-34.60895996 836.19558594 -35.72963867 836.03960938 -36.88427734 835.87890625 C-94.8038466 827.57502535 -149.46608289 804.6232951 -195.48828125 768.3515625 C-196.92300781 767.23587891 -196.92300781 767.23587891 -198.38671875 766.09765625 C-216.51681233 751.66269905 -234.43631814 734.79303864 -248.48828125 716.3515625 C-249.64263672 714.90523437 -249.64263672 714.90523437 -250.8203125 713.4296875 C-266.71593923 693.41800321 -279.48769869 671.36311654 -290.48828125 648.3515625 C-291.20854492 646.86281616 -291.20854492 646.86281616 -291.94335938 645.34399414 C-295.67184719 637.48643225 -298.74667392 629.54019866 -301.48828125 621.2890625 C-301.80794357 620.33152573 -301.80794357 620.33152573 -302.13406372 619.35464478 C-306.70075 605.57971875 -309.79439672 591.60640843 -312.48828125 577.3515625 C-312.80546603 575.77827667 -313.12426018 574.20531366 -313.4453125 572.6328125 C-322.16827307 528.66396009 -318.26366331 481.14538573 -308.96484375 437.64550781 C-308.6451679 436.10674025 -308.34326336 434.56418125 -308.05859375 433.01855469 C-306.73391688 425.89121717 -304.71956298 419.03317955 -302.61328125 412.1015625 C-301.89265437 409.70459982 -301.17259612 407.3074661 -300.453125 404.91015625 C-300.1113623 403.77433105 -299.76959961 402.63850586 -299.41748047 401.46826172 C-298.00904291 396.74411198 -296.67960926 391.99996263 -295.375 387.24609375 C-294.2425821 383.54952255 -292.87201392 379.95908483 -291.48828125 376.3515625 C-291.13757568 375.41852295 -290.78687012 374.4854834 -290.42553711 373.52416992 C-272.53253142 326.045296 -247.9647658 279.28117897 -212.98046875 242.03515625 C-210.86281847 239.75486511 -208.85407603 237.42893366 -206.86328125 235.0390625 C-200.79009526 228.08171339 -193.68277198 222.41544283 -184.375 221.0390625 C-175.6858966 220.54518806 -167.51842461 223.83166765 -161.0234375 229.49609375 C-156.41254815 235.06905161 -154.67337171 240.56714609 -153.3828125 247.5390625 C-153.12850716 248.83106567 -153.12850716 248.83106567 -152.86906433 250.14916992 C-152.3344768 252.88115894 -151.8175915 255.61616138 -151.30078125 258.3515625 C-150.94317489 260.18771802 -150.58446088 262.02365817 -150.22460938 263.859375 C-148.83387153 271.00764689 -147.45874108 278.1324498 -146.48828125 285.3515625 C-145.82828125 285.3515625 -145.16828125 285.3515625 -144.48828125 285.3515625 C-144.21153564 284.76181641 -143.93479004 284.17207031 -143.6496582 283.56445312 C-142.55166256 281.47232941 -141.37898863 279.78525011 -139.90625 277.9453125 C-139.13655884 276.9694519 -139.13655884 276.9694519 -138.35131836 275.97387695 C-137.79839111 275.27351318 -137.24546387 274.57314941 -136.67578125 273.8515625 C-120.84871305 253.41277978 -108.04160401 231.0077676 -97.44189453 207.45385742 C-96.73893865 205.90415105 -96.02160356 204.36094782 -95.29638672 202.8215332 C-92.25498869 196.3068192 -89.72999895 189.7430877 -87.48828125 182.9140625 C-87.14579346 181.87564209 -86.80330566 180.83722168 -86.45043945 179.76733398 C-78.60699708 155.5718386 -74.2609846 131.64274714 -74.36328125 106.1640625 C-74.36811523 104.89175781 -74.37294922 103.61945313 -74.37792969 102.30859375 C-74.50231842 82.7248315 -76.5920748 64.90073843 -80.98692322 45.79949951 C-81.5370274 43.40848238 -82.08297114 41.01653948 -82.62866211 38.62451172 C-83.35117274 35.45921568 -84.09266153 32.29921067 -84.84594727 29.14111328 C-87.62560511 17.24034693 -90.03136168 5.48831001 -83.48828125 -5.6484375 C-64.07217153 -31.25804044 -22.65095604 -11.18019568 0 0 Z " fill="#FD7A01" transform="translate(620.48828125,178.6484375)"/>
<path d="M0 0 C36.37945434 18.60895785 72.35589964 46.12244641 97.38696289 78.64428711 C99.58832045 81.44916519 101.88591542 84.14964282 104.203125 86.859375 C109.39525979 93.0284031 113.96018841 99.55089291 118.38671875 106.2890625 C118.96599625 107.16570557 118.96599625 107.16570557 119.55697632 108.06005859 C159.32255243 168.32496309 179.8278181 236.89928318 179.609375 308.97265625 C179.60750471 310.81209779 179.6060837 312.65153984 179.60508728 314.49098206 C179.60131014 319.2797285 179.59152223 324.06844352 179.5803833 328.85717773 C179.57006457 333.76480688 179.56556748 338.67244121 179.56054688 343.58007812 C179.54989453 353.17058655 179.53287752 362.76107189 179.51171875 372.3515625 C187.46623577 370.28376065 191.20271393 366.63191389 195.3203125 359.6875 C199.03947568 352.39550137 200.7141099 344.73830745 202.01171875 336.7265625 C203.54861019 327.24435088 205.5633728 317.83756092 213.625 311.7578125 C222.01542991 305.93532104 229.43375424 305.48688507 239.51171875 306.3515625 C263.6549311 312.65593762 280.26747453 338.66908603 292.20288086 358.82885742 C298.1621028 369.06710297 303.95049812 379.40718114 308.51171875 390.3515625 C308.89972656 391.24617188 309.28773438 392.14078125 309.6875 393.0625 C318.92961044 414.72270386 325.46041848 437.26309914 329.07373047 460.53955078 C329.35895423 462.37076998 329.65682895 464.20007777 329.96923828 466.02685547 C335.2539851 497.50159892 334.97533085 532.51990897 329.87036133 564.0168457 C329.50711627 566.38152402 329.24002179 568.74137432 328.99609375 571.12109375 C328.37032751 576.99436615 326.91103136 582.62134568 325.51171875 588.3515625 C325.25777344 589.48722656 325.00382813 590.62289062 324.7421875 591.79296875 C320.3697785 610.62028241 314.15574556 629.06350889 305.51171875 646.3515625 C304.87556641 647.89070312 304.87556641 647.89070312 304.2265625 649.4609375 C297.84079493 664.56893186 289.22585448 679.33466055 279.70166016 692.68359375 C278.45018962 694.43780932 277.22049435 696.20606411 275.9921875 697.9765625 C270.82072073 705.38181699 265.35453487 712.45835247 259.51171875 719.3515625 C258.60676326 720.44400414 257.70181575 721.5364524 256.796875 722.62890625 C250.18485155 730.51729786 243.14289059 737.92797945 235.88671875 745.2265625 C235.02852539 746.09394043 234.17033203 746.96131836 233.28613281 747.85498047 C227.33760714 753.77517983 221.08435136 759.13838652 214.51171875 764.3515625 C213.3198954 765.31719376 212.12842121 766.28325634 210.9375 767.25 C202.40142111 774.04030617 193.6050824 780.3294993 184.51171875 786.3515625 C183.5371875 787.00382813 182.56265625 787.65609375 181.55859375 788.328125 C163.20051719 800.11541459 143.1922293 809.40919308 122.93359375 817.38964844 C120.9585428 818.17409408 118.99831648 818.99578104 117.04296875 819.828125 C71.44237013 838.82837442 15.24803241 843.26237345 -33.48828125 836.3515625 C-34.60895996 836.19558594 -35.72963867 836.03960938 -36.88427734 835.87890625 C-94.8038466 827.57502535 -149.46608289 804.6232951 -195.48828125 768.3515625 C-196.92300781 767.23587891 -196.92300781 767.23587891 -198.38671875 766.09765625 C-216.51681233 751.66269905 -234.43631814 734.79303864 -248.48828125 716.3515625 C-249.64263672 714.90523437 -249.64263672 714.90523437 -250.8203125 713.4296875 C-266.71593923 693.41800321 -279.48769869 671.36311654 -290.48828125 648.3515625 C-291.20854492 646.86281616 -291.20854492 646.86281616 -291.94335938 645.34399414 C-295.67184719 637.48643225 -298.74667392 629.54019866 -301.48828125 621.2890625 C-301.80794357 620.33152573 -301.80794357 620.33152573 -302.13406372 619.35464478 C-306.70075 605.57971875 -309.79439672 591.60640843 -312.48828125 577.3515625 C-312.80546603 575.77827667 -313.12426018 574.20531366 -313.4453125 572.6328125 C-322.16827307 528.66396009 -318.26366331 481.14538573 -308.96484375 437.64550781 C-308.6451679 436.10674025 -308.34326336 434.56418125 -308.05859375 433.01855469 C-306.73391688 425.89121717 -304.71956298 419.03317955 -302.61328125 412.1015625 C-301.89265437 409.70459982 -301.17259612 407.3074661 -300.453125 404.91015625 C-300.1113623 403.77433105 -299.76959961 402.63850586 -299.41748047 401.46826172 C-298.00904291 396.74411198 -296.67960926 391.99996263 -295.375 387.24609375 C-294.2425821 383.54952255 -292.87201392 379.95908483 -291.48828125 376.3515625 C-291.13757568 375.41852295 -290.78687012 374.4854834 -290.42553711 373.52416992 C-272.53253142 326.045296 -247.9647658 279.28117897 -212.98046875 242.03515625 C-210.86281847 239.75486511 -208.85407603 237.42893366 -206.86328125 235.0390625 C-200.79009526 228.08171339 -193.68277198 222.41544283 -184.375 221.0390625 C-175.6858966 220.54518806 -167.51842461 223.83166765 -161.0234375 229.49609375 C-156.41254815 235.06905161 -154.67337171 240.56714609 -153.3828125 247.5390625 C-153.12850716 248.83106567 -153.12850716 248.83106567 -152.86906433 250.14916992 C-152.3344768 252.88115894 -151.8175915 255.61616138 -151.30078125 258.3515625 C-150.94317489 260.18771802 -150.58446088 262.02365817 -150.22460938 263.859375 C-148.83387153 271.00764689 -147.45874108 278.1324498 -146.48828125 285.3515625 C-145.82828125 285.3515625 -145.16828125 285.3515625 -144.48828125 285.3515625 C-144.21153564 284.76181641 -143.93479004 284.17207031 -143.6496582 283.56445312 C-142.55166256 281.47232941 -141.37898863 279.78525011 -139.90625 277.9453125 C-139.13655884 276.9694519 -139.13655884 276.9694519 -138.35131836 275.97387695 C-137.79839111 275.27351318 -137.24546387 274.57314941 -136.67578125 273.8515625 C-120.84871305 253.41277978 -108.04160401 231.0077676 -97.44189453 207.45385742 C-96.73893865 205.90415105 -96.02160356 204.36094782 -95.29638672 202.8215332 C-92.25498869 196.3068192 -89.72999895 189.7430877 -87.48828125 182.9140625 C-87.14579346 181.87564209 -86.80330566 180.83722168 -86.45043945 179.76733398 C-78.60699708 155.5718386 -74.2609846 131.64274714 -74.36328125 106.1640625 C-74.36811523 104.89175781 -74.37294922 103.61945313 -74.37792969 102.30859375 C-74.50231842 82.7248315 -76.5920748 64.90073843 -80.98692322 45.79949951 C-81.5370274 43.40848238 -82.08297114 41.01653948 -82.62866211 38.62451172 C-83.35117274 35.45921568 -84.09266153 32.29921067 -84.84594727 29.14111328 C-87.62560511 17.24034693 -90.03136168 5.48831001 -83.48828125 -5.6484375 C-64.07217153 -31.25804044 -22.65095604 -11.18019568 0 0 Z M-40.48828125 29.3515625 C-39.5277886 35.1949852 -38.55545684 41.03437489 -37.48828125 46.859375 C-27.18593566 103.98780411 -30.86346073 167.93901515 -57.56396484 220.46240234 C-59.0306248 223.46002906 -60.33794617 226.52547561 -61.67114258 229.58422852 C-77.08254948 264.78032463 -99.58569369 297.16160484 -126.09765625 324.89355469 C-127.46790635 326.33020033 -128.82199574 327.78220392 -130.17578125 329.234375 C-137.07784793 336.45208497 -142.80103231 340.79638641 -152.96484375 341.453125 C-159.5285034 341.18895294 -164.72091569 338.82612923 -169.48828125 334.3515625 C-170.94639527 331.99284865 -172.1792396 329.7753972 -173.36328125 327.2890625 C-173.70061279 326.59804443 -174.03794434 325.90702637 -174.38549805 325.19506836 C-178.36807037 316.82300669 -181.48392498 308.11323669 -184.48828125 299.3515625 C-184.89566528 298.16904907 -184.89566528 298.16904907 -185.3112793 296.96264648 C-186.62361584 293.09914369 -187.8499047 289.29138733 -188.67578125 285.2890625 C-188.83433594 284.53496094 -188.99289062 283.78085937 -189.15625 283.00390625 C-189.26582031 282.45863281 -189.37539063 281.91335938 -189.48828125 281.3515625 C-192.55874311 282.68745821 -194.30749328 284.01416862 -196.3359375 286.66796875 C-196.85293213 287.34053711 -197.36992676 288.01310547 -197.90258789 288.70605469 C-198.4464917 289.43469727 -198.99039551 290.16333984 -199.55078125 290.9140625 C-200.12368896 291.67493164 -200.69659668 292.43580078 -201.28686523 293.21972656 C-236.49144659 340.52298965 -261.55867535 399.81341442 -270.15722656 458.17773438 C-270.49764666 460.41305928 -270.87385892 462.63962709 -271.26171875 464.8671875 C-271.39360596 465.62862061 -271.52549316 466.39005371 -271.66137695 467.17456055 C-271.904866 468.57488969 -272.15045179 469.97485773 -272.39916992 471.37426758 C-274.92438749 486.18947641 -275.90114071 500.77484227 -275.86328125 515.7890625 C-275.86174042 516.72087341 -275.86019958 517.65268433 -275.85861206 518.61273193 C-275.6467446 572.92585062 -261.33004129 625.10914692 -230.48828125 670.3515625 C-230.05273926 670.99657715 -229.61719727 671.6415918 -229.16845703 672.30615234 C-214.95383197 693.23187298 -197.26992988 712.64335503 -177.48828125 728.3515625 C-176.31896352 729.30955372 -175.15106225 730.26927575 -173.984375 731.23046875 C-166.03919011 737.74126644 -157.892822 743.71089273 -149.23339844 749.23730469 C-147.63687332 750.25668642 -146.05031214 751.29163016 -144.46484375 752.328125 C-116.46455457 770.18657715 -82.64716051 785.72587087 -49.4296875 789.92578125 C-46.35366438 790.37104887 -43.43538778 791.0791856 -40.42578125 791.8515625 C-25.36340044 795.41431035 -9.74157411 795.68263934 5.66577148 795.61230469 C8.4447211 795.60157986 11.22302273 795.61228514 14.00195312 795.625 C37.00758053 795.72641319 37.00758053 795.72641319 59.4375 791.25 C62.87880967 790.24428053 66.33559283 789.5074593 69.84106445 788.76269531 C79.31071225 786.73496181 88.54009571 784.25084702 97.76171875 781.2890625 C98.78410645 780.96075439 99.80649414 780.63244629 100.85986328 780.29418945 C110.07690542 777.26991829 118.88905459 773.79320351 127.51171875 769.3515625 C128.73796648 768.75189073 129.9658264 768.15550393 131.1953125 767.5625 C155.57891345 755.69034684 178.30290025 740.7821121 198.28515625 722.39453125 C200.32599801 720.52196942 202.40635572 718.71326716 204.51171875 716.9140625 C212.12061254 710.25436673 218.95526799 703.07367341 225.25 695.1640625 C226.73167746 693.32156203 228.24924996 691.50723375 229.8046875 689.7265625 C248.88196021 667.81726399 263.0604925 641.38959619 273.66796875 614.46142578 C274.25466108 612.99435543 274.86028997 611.5347744 275.48046875 610.08154297 C278.33747076 603.28105404 280.25353836 596.38280497 282.01171875 589.2265625 C282.31287598 588.0096875 282.6140332 586.7928125 282.92431641 585.5390625 C295.63490886 532.91898744 294.59294047 475.60946178 276.51171875 424.3515625 C276.22369385 423.5157666 275.93566895 422.6799707 275.63891602 421.81884766 C267.80713495 399.37452268 257.0075908 377.52573343 241.51171875 359.3515625 C239.18919667 360.22138857 239.18919667 360.22138857 238.5390625 363.16796875 C237.99958984 365.02228516 237.99958984 365.02228516 237.44921875 366.9140625 C232.25218325 383.50359446 222.86184641 398.55306251 207.51171875 407.3515625 C194.73699937 413.53648128 181.9074053 416.88230676 167.7890625 413.4453125 C156.8427473 409.45086766 148.72329497 403.51149144 143.32421875 393.05078125 C142.31161297 390.83570611 141.37288449 388.62973732 140.51171875 386.3515625 C140.16991577 385.47702927 139.82811279 384.60249603 139.47595215 383.70146179 C138.38193914 379.9006876 138.21920789 376.39714537 138.22460938 372.47973633 C138.21777634 371.71268372 138.2109433 370.9456311 138.2039032 370.15533447 C138.19035563 368.49398009 138.18127644 366.83258448 138.17619324 365.17118263 C138.16782382 362.51255509 138.14723124 359.85425815 138.12365723 357.19572449 C138.07552479 351.5185542 138.04270857 345.84134861 138.01171875 340.1640625 C137.95843621 296.22801839 137.95843621 296.22801839 132.76171875 252.6640625 C132.63266144 251.9368399 132.50360413 251.20961731 132.37063599 250.46035767 C129.15909975 232.36447771 125.23169272 214.50058699 118.51171875 197.3515625 C118.1353125 196.31773437 117.75890625 195.28390625 117.37109375 194.21875 C104.84715072 160.2371179 85.40684483 126.71707281 60.51171875 100.3515625 C59.46552646 99.12624547 58.42381703 97.89708614 57.38671875 96.6640625 C48.32946923 86.30088398 38.36667054 76.7994134 27.51171875 68.3515625 C26.5165625 67.52785156 25.52140625 66.70414063 24.49609375 65.85546875 C5.43437645 50.16980493 -16.7824095 36.59956467 -40.48828125 29.3515625 Z " fill="#1B140E" transform="translate(620.48828125,178.6484375)"/>
<path d="M0 0 C3.68778339 2.10730479 5.41601964 4.12078906 7 8 C7.22032166 10.41235352 7.22032166 10.41235352 7.17944336 13.12890625 C7.16469215 14.66200439 7.16469215 14.66200439 7.14964294 16.22607422 C7.12990921 17.32709473 7.11017548 18.42811523 7.08984375 19.5625 C7.06940444 21.91015403 7.04923077 24.25781038 7.02929688 26.60546875 C6.98599875 30.29388203 6.93776253 33.98214105 6.88354492 37.67041016 C6.83483323 41.23860141 6.8052356 44.80659365 6.77734375 48.375 C6.75558578 49.45982666 6.73382782 50.54465332 6.71141052 51.66235352 C6.64346334 62.31188318 9.11397707 72.05073952 13.4375 81.75 C13.77313965 82.50442383 14.1087793 83.25884766 14.45458984 84.03613281 C19.04606416 93.83264149 25.60255479 102.79574817 33.3671875 110.328125 C36 113 36 113 36 115 C36.58652344 115.25652344 37.17304687 115.51304687 37.77734375 115.77734375 C40.20312929 117.11173896 41.67528701 118.54485328 43.5625 120.5625 C47.87892214 124.98188267 52.53106062 128.82935601 57.35302734 132.68261719 C96.23152508 163.78080483 131.10776045 196.91274738 137.69824219 249.04150391 C141.46710609 285.99222624 130.47848872 323.9719255 107.45556641 353.22900391 C93.1885405 370.58777712 72.15554519 392.20508419 49.25 397.25 C48.1775 397.4975 47.105 397.745 46 398 C45.67 398.99 45.34 399.98 45 401 C23.05978195 404.88052074 3.01823206 405.38746749 -17 395 C-18.76300688 394.14441828 -20.52737069 393.29162789 -22.29296875 392.44140625 C-61.93650997 372.92078029 -94.44798637 340.34039288 -114.8125 301.3125 C-115.35156982 300.27988037 -115.89063965 299.24726074 -116.44604492 298.18334961 C-122.28069483 286.79921886 -126.86213006 275.40394881 -130 263 C-130.20657227 262.19240234 -130.41314453 261.38480469 -130.62597656 260.55273438 C-135.36553951 241.74804723 -137.57057167 223.38041788 -137 204 C-136.98195313 202.84113281 -136.96390625 201.68226563 -136.9453125 200.48828125 C-136.14110303 179.36595616 -130.73935674 156.67510518 -123 137 C-122.67 136.14277344 -122.34 135.28554688 -122 134.40234375 C-108.51635991 101.16727775 -90.17412494 72.43672777 -66 46 C-65.12214844 45.01773438 -64.24429688 44.03546875 -63.33984375 43.0234375 C-57.57503948 36.59393476 -51.61030367 30.57247664 -45 25 C-44.47486816 24.55720703 -43.94973633 24.11441406 -43.40869141 23.65820312 C-39.02551045 19.99066921 -34.54501048 16.46442885 -30 13 C-29.22317871 12.40445313 -28.44635742 11.80890625 -27.64599609 11.1953125 C-25.20340685 9.34691929 -22.73287934 7.54380698 -20.25 5.75 C-19.11703491 4.89003418 -19.11703491 4.89003418 -17.96118164 4.01269531 C-12.12479657 -0.09908814 -7.09343083 -1.11178196 0 0 Z " fill="#FDAF0C" transform="translate(630,570)"/>
<path d="M0 0 C3.18565463 1.79193073 4.52569233 3.16431505 6.3125 6.3125 C7.85955539 12.36008018 6.75635264 18.00277518 5.25 23.9375 C4.97929687 25.04992065 4.97929687 25.04992065 4.703125 26.18481445 C3.82817013 29.76172414 2.91789792 33.32859442 1.984375 36.890625 C-14.48627452 100.42027316 -9.63699803 169.07188385 18.84863281 228.57666016 C20.16379914 231.34475621 21.43647237 234.13090775 22.7109375 236.91796875 C29.19564309 250.94184758 36.48038472 264.11388184 45 277 C45.48887695 277.7410498 45.97775391 278.48209961 46.48144531 279.24560547 C57.05365778 295.16157768 68.76895372 310.31239957 81.6640625 324.41796875 C83.54053657 326.49213156 85.37068265 328.59178286 87.1953125 330.7109375 C91.35748165 335.4767161 95.77901314 339.9628484 100.25 344.4375 C101.05179688 345.25154297 101.85359375 346.06558594 102.6796875 346.90429688 C103.45054687 347.67708984 104.22140625 348.44988281 105.015625 349.24609375 C105.70946289 349.94404053 106.40330078 350.6419873 107.11816406 351.36108398 C109.00287874 353.21461893 109.00287874 353.21461893 112 354 C113.68380161 356.00864122 115.25454196 358.02254577 116.8125 360.125 C138.40552203 388.38343928 166.4375541 409.72686087 198.88867188 424.06152344 C200.75580235 424.89145516 202.605947 425.75937313 204.453125 426.6328125 C213.4812921 430.60248396 222.28050298 430.88000621 232 431 C232 431.33 232 431.66 232 432 C174.53698588 432.75436164 174.53698588 432.75436164 155 427 C152.56613689 426.60207837 150.12813761 426.22900464 147.6875 425.875 C129.5359557 422.90997399 111.72963197 416.54371646 95 409 C94.37657715 408.72333496 93.7531543 408.44666992 93.11083984 408.16162109 C88.69642283 406.19570959 84.33501065 404.135056 80 402 C79.33532715 401.67306152 78.6706543 401.34612305 77.98583984 401.00927734 C43.26828797 383.73657798 10.04950696 357.43326591 -14 327 C-14.87257203 325.92876942 -15.74631172 324.85848912 -16.62109375 323.7890625 C-62.18134884 267.6184388 -80.63843825 194.24589524 -73.19921875 122.8671875 C-71.95518371 111.82686872 -70.09225225 100.97647633 -67.66479492 90.13671875 C-67.04280846 87.20198423 -66.55286129 84.28094345 -66.125 81.3125 C-64.76992977 72.72649467 -62.294591 64.37262975 -60 56 C-59.01 56 -58.02 56 -57 56 C-56.67 56.66 -56.34 57.32 -56 58 C-55.39414062 56.93523438 -54.78828125 55.87046875 -54.1640625 54.7734375 C-46.33340597 41.14913734 -37.74328037 28.71103223 -27.4453125 16.83984375 C-25.8447831 14.98108197 -24.29459991 13.07745718 -22.8046875 11.12890625 C-22.20914063 10.42636719 -21.61359375 9.72382812 -21 9 C-20.34 9 -19.68 9 -19 9 C-19 8.34 -19 7.68 -19 7 C-13.49011163 1.11746217 -8.06256546 -1.77601966 0 0 Z " fill="#F96701" transform="translate(419,542)"/>
<path d="M0 0 C1.439735 0.14033578 2.88337149 0.24416857 4.328125 0.31640625 C5.52695312 0.37924805 5.52695312 0.37924805 6.75 0.44335938 C7.9875 0.50233398 7.9875 0.50233398 9.25 0.5625 C10.09046875 0.60568359 10.9309375 0.64886719 11.796875 0.69335938 C13.86440671 0.79908543 15.93218281 0.90001295 18 1 C18 1.33 18 1.66 18 2 C3.48 2 -11.04 2 -26 2 C-26 1.67 -26 1.34 -26 1 C-21.49667984 -0.05644489 -17.03926544 -0.3563991 -12.4375 -0.625 C-11.30538086 -0.70234375 -11.30538086 -0.70234375 -10.15039062 -0.78125 C-6.50814756 -0.99946368 -3.50413735 -0.90888694 0 0 Z " fill="#CB6004" transform="translate(633,972)"/>
<path d="M0 0 C0.33 0 0.66 0 1 0 C1.16723026 5.25087844 1.32782815 10.50190094 1.48217773 15.75317383 C1.53567402 17.54099032 1.59100904 19.32875275 1.64819336 21.11645508 C1.72989235 23.68038266 1.80505945 26.24442953 1.87890625 28.80859375 C1.90594131 29.6127623 1.93297638 30.41693085 1.96083069 31.24546814 C2.01285627 33.16298422 2.01187441 35.08181503 2 37 C1.505 37.495 1.505 37.495 1 38 C0.76712992 39.68183948 0.58735834 41.3712416 0.4375 43.0625 C0.35371094 43.98160156 0.26992188 44.90070312 0.18359375 45.84765625 C0.12300781 46.55792969 0.06242188 47.26820313 0 48 C-0.33 48 -0.66 48 -1 48 C-1.07131276 37.17531758 -0.85665154 26.38053125 -0.5 15.5625 C-0.45160633 14.0410225 -0.40342827 12.51953812 -0.35546875 10.99804688 C-0.23945122 7.33194907 -0.12056309 3.66595148 0 0 Z " fill="#FCF5DF" transform="translate(954,678)"/>
<path d="M0 0 C3.49521193 1.16507064 3.68385496 1.68839347 5.375 4.7890625 C5.80296875 5.56636719 6.2309375 6.34367188 6.671875 7.14453125 C7.11015625 7.96308594 7.5484375 8.78164063 8 9.625 C8.43828125 10.42035156 8.8765625 11.21570313 9.328125 12.03515625 C11.81770264 16.6018815 14.03728923 21.18361108 16 26 C15.34 26 14.68 26 14 26 C10.18181286 21.23375959 5 13.24376626 5 7 C4.01 7 3.02 7 2 7 C1.34 4.69 0.68 2.38 0 0 Z " fill="#EA7706" transform="translate(871,553)"/>
<path d="M0 0 C0.33 -0.33 0.66 -0.66 1 -1 C2.51928038 -1.07179964 4.04167482 -1.08392007 5.5625 -1.0625 C6.38878906 -1.05347656 7.21507812 -1.04445313 8.06640625 -1.03515625 C8.70449219 -1.02355469 9.34257813 -1.01195312 10 -1 C10 -0.67 10 -0.34 10 0 C2.74 1.32 -4.52 2.64 -12 4 C-12 3.34 -12 2.68 -12 2 C-10.75579353 1.4654744 -9.50429064 0.94791389 -8.25 0.4375 C-7.55390625 0.14746094 -6.8578125 -0.14257812 -6.140625 -0.44140625 C-3.69070136 -1.08071114 -2.388626 -0.70100981 0 0 Z " fill="#E77605" transform="translate(688,966)"/>
<path d="M0 0 C0.66 0.66 1.32 1.32 2 2 C-1.96 5.96 -5.92 9.92 -10 14 C-10 10.2814858 -9.14087832 9.68195394 -6.6875 7 C-5.76517578 5.9790625 -5.76517578 5.9790625 -4.82421875 4.9375 C-3.24455272 3.25973908 -1.64189074 1.61663089 0 0 Z " fill="#26201B" transform="translate(420,407)"/>
<path d="M0 0 C-0.33 0.99 -0.66 1.98 -1 3 C-2.70703125 3.765625 -2.70703125 3.765625 -4.8125 4.25 C-5.49957031 4.42015625 -6.18664062 4.5903125 -6.89453125 4.765625 C-9.19499821 5.02170666 -10.80629727 4.69015367 -13 4 C-12.67 3.34 -12.34 2.68 -12 2 C-10.0390625 1.3671875 -10.0390625 1.3671875 -7.625 0.875 C-6.83351563 0.70742188 -6.04203125 0.53984375 -5.2265625 0.3671875 C-3 0 -3 0 0 0 Z " fill="#2D1C0F" transform="translate(701,965)"/>
<path d="M0 0 C5.28 0 10.56 0 16 0 C13.03651571 1.9756562 12.31979627 2.26376859 8.98828125 2.4140625 C7.85229492 2.47207031 7.85229492 2.47207031 6.69335938 2.53125 C5.90767578 2.5621875 5.12199219 2.593125 4.3125 2.625 C3.51521484 2.66367187 2.71792969 2.70234375 1.89648438 2.7421875 C-0.06863475 2.83632494 -2.0342854 2.91924632 -4 3 C-2.68 2.67 -1.36 2.34 0 2 C0 1.34 0 0.68 0 0 Z " fill="#A77310" transform="translate(659,970)"/>
<path d="M0 0 C0.66 0 1.32 0 2 0 C2.67154933 1.28913487 3.33708859 2.58140204 4 3.875 C4.37125 4.59429688 4.7425 5.31359375 5.125 6.0546875 C6 8 6 8 6 10 C5.01 9.67 4.02 9.34 3 9 C3 8.34 3 7.68 3 7 C2.34 7 1.68 7 1 7 C0.67 4.69 0.34 2.38 0 0 Z " fill="#D5CCB9" transform="translate(330,829)"/>
<path d="M0 0 C0.66 0.33 1.32 0.66 2 1 C0.7508258 4.45925163 -0.67527795 7.14693203 -3 10 C-3.99 9.67 -4.98 9.34 -6 9 C-4.02 6.03 -2.04 3.06 0 0 Z " fill="#221C17" transform="translate(382,452)"/>
<path d="M0 0 C0.99 0.33 1.98 0.66 3 1 C2.55090939 2.48199902 2.09043436 3.96055236 1.625 5.4375 C1.36976563 6.26121094 1.11453125 7.08492187 0.8515625 7.93359375 C0 10 0 10 -2 11 C-1.125 3.375 -1.125 3.375 0 0 Z " fill="#E47605" transform="translate(369,567)"/>
<path d="M0 0 C0.66 0 1.32 0 2 0 C1.67 1.98 1.34 3.96 1 6 C0.01 6 -0.98 6 -2 6 C-3.68798827 7.43750191 -3.68798827 7.43750191 -5 9 C-5.66 8.67 -6.32 8.34 -7 8 C-5.88200014 6.66079162 -4.75538103 5.32877444 -3.625 4 C-2.68527344 2.88625 -2.68527344 2.88625 -1.7265625 1.75 C-1.15679687 1.1725 -0.58703125 0.595 0 0 Z " fill="#E57705" transform="translate(429,460)"/>
<path d="M0 0 C0.33 0 0.66 0 1 0 C2.125 7.625 2.125 7.625 1 11 C1 11.66 1 12.32 1 13 C0.34 13 -0.32 13 -1 13 C-1.33 13.66 -1.66 14.32 -2 15 C-1.03644647 4.44191344 -1.03644647 4.44191344 0 0 Z " fill="#552D0A" transform="translate(908,737)"/>
<path d="M0 0 C0.99 0.99 1.98 1.98 3 3 C2.01 3.33 1.02 3.66 0 4 C0.061875 4.78375 0.12375 5.5675 0.1875 6.375 C0.125625 7.24125 0.06375 8.1075 0 9 C-0.99 9.66 -1.98 10.32 -3 11 C-2.69217504 9.35328588 -2.37860766 7.70764424 -2.0625 6.0625 C-1.88847656 5.14597656 -1.71445312 4.22945312 -1.53515625 3.28515625 C-1 1 -1 1 0 0 Z " fill="#E27506" transform="translate(861,538)"/>
<path d="M0 0 C0.66 0 1.32 0 2 0 C2 0.66 2 1.32 2 2 C1.34 2 0.68 2 0 2 C-0.2475 2.598125 -0.495 3.19625 -0.75 3.8125 C-2.16370012 6.28647521 -3.65055383 7.43370255 -6 9 C-6 6 -6 6 -3.5625 3.375 C-2.716875 2.59125 -1.87125 1.8075 -1 1 C-0.67 0.67 -0.34 0.34 0 0 Z " fill="#211B16" transform="translate(836,489)"/>
<path d="M0 0 C-1.75 3.875 -1.75 3.875 -4 5 C-5.99960012 5.039992 -8.00047242 5.04346799 -10 5 C-3.63636364 0 -3.63636364 0 0 0 Z " fill="#321C0D" transform="translate(764,940)"/>
<path d="M0 0 C0.8971875 0.5259375 0.8971875 0.5259375 1.8125 1.0625 C-1.96937881 2.89941257 -4.13318308 3.22087626 -8.1875 2.0625 C-3.10054348 -1.32880435 -3.10054348 -1.32880435 0 0 Z M-8.1875 3.0625 C-6.1875 4.0625 -6.1875 4.0625 -6.1875 4.0625 Z " fill="#28190F" transform="translate(726.1875,957.9375)"/>
<path d="M0 0 C0.33 0 0.66 0 1 0 C1.375 2.125 1.375 2.125 1 5 C-0.79340357 7.23913252 -2.83452663 9.12454539 -5 11 C-5.66 10.67 -6.32 10.34 -7 10 C-6.57847656 9.44570313 -6.15695312 8.89140625 -5.72265625 8.3203125 C-5.17480469 7.59585938 -4.62695312 6.87140625 -4.0625 6.125 C-3.51722656 5.40570312 -2.97195313 4.68640625 -2.41015625 3.9453125 C-0.96035376 2.05642921 -0.96035376 2.05642921 0 0 Z " fill="#E07204" transform="translate(850,563)"/>
<path d="M0 0 C0.99 0.33 1.98 0.66 3 1 C2.67 2.98 2.34 4.96 2 7 C1.01 7.33 0.02 7.66 -1 8 C-0.67 5.36 -0.34 2.72 0 0 Z " fill="#E6DCC6" transform="translate(945,767)"/>
<path d="M0 0 C1.99097846 2.98646769 2.94124926 5.59687262 4 9 C2.35 8.01 0.7 7.02 -1 6 C-0.67 4.02 -0.34 2.04 0 0 Z " fill="#3A3228" transform="translate(929,571)"/>
<path d="M0 0 C1.45606519 4.52092968 0.27032841 7.51648796 -1 12 C-1.66 11.34 -2.32 10.68 -3 10 C-2.67342446 6.24438133 -1.8830622 3.26397448 0 0 Z " fill="#2C2721" transform="translate(537,173)"/>
<path d="M0 0 C0.66 0 1.32 0 2 0 C2.33 2.64 2.66 5.28 3 8 C2.01 8.495 2.01 8.495 1 9 C0.67 6.03 0.34 3.06 0 0 Z " fill="#372F27" transform="translate(945,626)"/>
<path d="M0 0 C0.66 0.66 1.32 1.32 2 2 C1.63723355 4.82957829 0.90305236 7.29084291 0 10 C-0.66 10 -1.32 10 -2 10 C-1.34 6.7 -0.68 3.4 0 0 Z " fill="#EA7304" transform="translate(581,346)"/>
<path d="M0 0 C3.68754757 0.49831724 5.60490662 1.10067643 8 4 C7.01 4.495 7.01 4.495 6 5 C3.96855359 4.06553465 1.96466413 3.06775224 0 2 C0 1.34 0 0.68 0 0 Z " fill="#362E26" transform="translate(488,984)"/>
<path d="M0 0 C0.33 0.99 0.66 1.98 1 3 C-0.4375 5.6875 -0.4375 5.6875 -2 8 C-2.99 7.67 -3.98 7.34 -5 7 C-3.35 4.69 -1.7 2.38 0 0 Z " fill="#DED3BE" transform="translate(900,870)"/>
<path d="M0 0 C1.125 1.5 1.125 1.5 2 4 C1.57598348 6.7773082 0.81108065 9.29639783 0 12 C-0.33 12 -0.66 12 -1 12 C-1.14285714 3.42857143 -1.14285714 3.42857143 0 0 Z " fill="#3F1D0B" transform="translate(910,725)"/>
<path d="M0 0 C0.66 0.33 1.32 0.66 2 1 C1.67 3.64 1.34 6.28 1 9 C0.34 9 -0.32 9 -1 9 C-0.67 6.03 -0.34 3.06 0 0 Z " fill="#301D0B" transform="translate(349,634)"/>
<path d="M0 0 C3.82946843 1.45255699 5.12050295 3.42895561 7 7 C4.525 6.01 4.525 6.01 2 5 C2 4.01 2 3.02 2 2 C1.34 2 0.68 2 0 2 C0 1.34 0 0.68 0 0 Z " fill="#251D16" transform="translate(895,515)"/>
<path d="M0 0 C0.99 0 1.98 0 3 0 C2.67 1.98 2.34 3.96 2 6 C1.01 6.33 0.02 6.66 -1 7 C-0.67 4.69 -0.34 2.38 0 0 Z " fill="#EADFC8" transform="translate(943,776)"/>
<path d="M0 0 C0.66 0.99 1.32 1.98 2 3 C1.125 5.6875 1.125 5.6875 0 8 C-0.66 8 -1.32 8 -2 8 C-1.125 2.25 -1.125 2.25 0 0 Z " fill="#342E27" transform="translate(332,547)"/>
<path d="M0 0 C0.66 0 1.32 0 2 0 C2.75 1.75 2.75 1.75 3 4 C1.0625 6.25 1.0625 6.25 -1 8 C-0.67 5.36 -0.34 2.72 0 0 Z " fill="#26211B" transform="translate(540,337)"/>
<path d="M0 0 C2.67927341 4.01891012 2.15601248 6.24161923 2 11 C1.67 9.68 1.34 8.36 1 7 C0.34 7 -0.32 7 -1 7 C-0.67 4.69 -0.34 2.38 0 0 Z " fill="#B8AE9E" transform="translate(544,249)"/>
</svg>
