<?xml version="1.0" encoding="UTF-8"?>
<svg version="1.1" xmlns="http://www.w3.org/2000/svg" width="1254" height="1254">
<path d="M0 0 C413.82 0 827.64 0 1254 0 C1254 413.82 1254 827.64 1254 1254 C840.18 1254 426.36 1254 0 1254 C0 840.18 0 426.36 0 0 Z " fill="#0E0D0A" transform="translate(0,0)"/>
<path d="M0 0 C3.03617195 0.01075097 6.07175567 0.00002669 9.10791016 -0.01269531 C19.60954426 -0.01976784 29.54375443 0.51226864 39.90869141 2.26074219 C41.44314155 2.42180854 42.97968825 2.56483672 44.51806641 2.68261719 C75.78192688 5.1078133 107.92268536 15.21740462 135.90869141 29.26074219 C136.75947266 29.68484375 137.61025391 30.10894531 138.48681641 30.54589844 C157.49784134 40.07796262 175.26720392 50.75852922 192.05615234 63.82568359 C193.83057117 65.2002268 195.62054192 66.5512483 197.41650391 67.89746094 C207.23013364 75.32801935 216.07911536 83.700019 224.90869141 92.26074219 C225.73941162 93.05859131 225.73941162 93.05859131 226.58691406 93.87255859 C233.24861246 100.27893798 239.17454671 107.02209418 244.90869141 114.26074219 C245.84157532 115.39391193 246.77657759 116.5253401 247.71337891 117.65527344 C255.48197595 127.08501572 262.3653794 136.94775189 268.90869141 147.26074219 C269.40900879 148.04578125 269.90932617 148.83082031 270.42480469 149.63964844 C280.74738991 165.96466268 289.51491787 183.01585558 295.90869141 201.26074219 C296.42512603 202.65820894 296.94563128 204.05418171 297.47119141 205.44824219 C297.83361938 206.41370972 297.83361938 206.41370972 298.20336914 207.39868164 C298.87916077 209.18278089 299.56747472 210.9621217 300.25634766 212.74121094 C307.71155663 232.70355918 312.10615165 253.17716631 314.90869141 274.26074219 C315.0008493 274.94644287 315.0930072 275.63214355 315.18795776 276.33862305 C316.71796981 287.95996337 317.27186611 299.41966385 317.22119141 311.13574219 C317.22003326 311.97503265 317.21887512 312.81432312 317.21768188 313.67904663 C317.17612361 329.03582804 316.06247733 344.04428349 313.90869141 359.26074219 C313.70131659 360.88439626 313.49425616 362.50809054 313.28759766 364.13183594 C311.5397781 376.86137022 307.74269889 389.02861654 303.90869141 401.26074219 C303.60302246 402.25412598 303.29735352 403.24750977 302.98242188 404.27099609 C289.41048799 448.13703997 266.92762993 486.67271104 236.90869141 521.26074219 C236.18166016 522.10121094 235.45462891 522.94167969 234.70556641 523.80761719 C225.74174455 533.96661529 216.24661316 543.72849533 205.60009766 552.12792969 C202.74158633 554.39316508 199.98814685 556.75981005 197.22119141 559.13574219 C186.26612549 568.27442412 174.19254855 576.03906818 161.90869141 583.26074219 C161.28929687 583.62989746 160.66990234 583.99905273 160.03173828 584.37939453 C141.80692252 595.17512899 122.22075134 604.19703487 101.90869141 610.26074219 C100.46935668 610.75543582 99.03165082 611.25491363 97.59619141 611.76074219 C85.84199934 615.62097501 73.98708079 618.58399635 61.84619141 620.94824219 C60.81953369 621.15046387 59.79287598 621.35268555 58.73510742 621.56103516 C42.02219722 624.71085158 25.80942913 625.60819923 8.81835938 625.57641602 C5.31039005 625.57326616 1.80327538 625.59676494 -1.70458984 625.62207031 C-32.75526233 625.70950472 -61.78647451 619.78026343 -91.23242188 610.18798828 C-93.6468626 609.40489299 -96.06712075 608.64965391 -98.49365234 607.90527344 C-134.08929166 596.58914589 -167.41076054 574.96051306 -195.44458008 550.68652344 C-196.59614495 549.68946801 -197.75229892 548.69769934 -198.91186523 547.70996094 C-211.66159237 536.74739962 -223.89550562 524.64843339 -234.09130859 511.26074219 C-235.1604425 509.92801918 -236.23230904 508.59748602 -237.30615234 507.26855469 C-249.11008044 492.55061818 -258.99941864 476.82122243 -268.00146484 460.25976562 C-269.13378477 458.18283114 -270.28439856 456.11662555 -271.43505859 454.04980469 C-276.57439389 444.70826942 -280.58955561 435.32150618 -284.09130859 425.26074219 C-284.75599157 423.46833865 -285.42246753 421.67659827 -286.09130859 419.88574219 C-286.76290038 418.01250063 -287.42899911 416.13728571 -288.09130859 414.26074219 C-288.30754883 413.65665527 -288.52378906 413.05256836 -288.74658203 412.43017578 C-296.78557858 389.82945778 -301.37632577 367.07896438 -304.09130859 343.26074219 C-304.19660889 342.41157227 -304.30190918 341.56240234 -304.41040039 340.6875 C-305.37172915 331.96119837 -305.27738303 323.18844814 -305.27661133 314.42041016 C-305.2787874 311.66260082 -305.29696867 308.90519934 -305.31591797 306.14746094 C-305.35163883 295.02667803 -304.68345844 284.2644421 -303.09130859 273.26074219 C-302.95055908 272.22111328 -302.80980957 271.18148438 -302.66479492 270.11035156 C-300.43160355 254.13117502 -296.57793052 238.74193179 -292.09130859 223.26074219 C-291.87941895 222.51598633 -291.6675293 221.77123047 -291.44921875 221.00390625 C-289.72356034 214.95124634 -287.76318872 209.20154901 -285.09130859 203.50292969 C-283.59613176 200.15046289 -282.41499654 196.69712517 -281.21630859 193.22949219 C-269.13095366 161.33758334 -248.76465345 131.5373518 -226.09130859 106.26074219 C-225.63159668 105.74463379 -225.17188477 105.22852539 -224.69824219 104.69677734 C-215.43718254 94.3253104 -205.80491649 84.14736066 -195.09130859 75.26074219 C-194.55054688 74.80618652 -194.00978516 74.35163086 -193.45263672 73.88330078 C-183.72247778 65.72077856 -173.69851443 58.24288684 -163.09130859 51.26074219 C-162.15029297 50.638125 -161.20927734 50.01550781 -160.23974609 49.37402344 C-153.23086722 44.83201583 -146.01927482 40.6181063 -138.81396484 36.39746094 C-138.19271729 36.03354248 -137.57146973 35.66962402 -136.93139648 35.29467773 C-136.32416748 34.953479 -135.71693848 34.61228027 -135.09130859 34.26074219 C-134.43702881 33.88667236 -133.78274902 33.51260254 -133.10864258 33.12719727 C-131.09130859 32.26074219 -131.09130859 32.26074219 -127.09130859 32.26074219 C-127.09130859 31.60074219 -127.09130859 30.94074219 -127.09130859 30.26074219 C-108.69546736 22.04199832 -90.54920992 14.90755635 -71.06005859 9.77929688 C-69.38054511 9.33692502 -67.70430733 8.88214745 -66.02880859 8.42480469 C-59.68718426 6.74931871 -53.27684972 5.45295578 -46.84130859 4.19824219 C-46.02041748 4.03573975 -45.19952637 3.8732373 -44.35375977 3.70581055 C-29.48385004 0.8811739 -15.10904709 -0.06357586 0 0 Z " fill="#F8F8F8" transform="translate(621.09130859375,286.7392578125)"/>
<path d="M0 0 C65.34 0 130.68 0 198 0 C201.37849882 10.13549645 201.37849882 10.13549645 202.0625 15.16796875 C202.21976563 16.31201172 202.37703125 17.45605469 202.5390625 18.63476562 C202.69117188 19.80716797 202.84328125 20.97957031 203 22.1875 C203.15210938 23.27869141 203.30421875 24.36988281 203.4609375 25.49414062 C203.90361469 28.79063431 204.31117039 32.08790448 204.69549561 35.39157104 C204.91685424 37.28776129 205.14388645 39.18329187 205.37432861 41.07839966 C207.74616409 60.87838796 208.49693655 80.37628085 208.38672256 100.29983139 C208.37478503 102.6039926 208.3678315 104.90812679 208.36190796 107.21231079 C208.27525463 136.31468201 206.58540717 164.7074133 202.38671875 193.51953125 C202.15385116 195.13135336 201.92122479 196.74321035 201.68884277 198.35510254 C201.12865921 202.23714033 200.56526907 206.1186996 200 210 C173.67974346 210.02332572 147.35948846 210.04097756 121.03922367 210.05181217 C108.81919574 210.05697583 96.59917421 210.06401984 84.37915039 210.07543945 C73.7323487 210.08538417 63.08555165 210.09185292 52.43874544 210.09408849 C46.79759328 210.09539596 41.15645439 210.09848409 35.51530647 210.10573006 C30.21226576 210.11248693 24.90924387 210.11461764 19.60619926 210.11310768 C17.65381137 210.11338416 15.70142288 210.11539124 13.7490387 210.11920547 C11.09565409 210.12413754 8.44234176 210.1230001 5.78895569 210.12025452 C5.00589697 210.12316736 4.22283826 210.1260802 3.41605049 210.12908131 C-1.88587879 210.11412121 -1.88587879 210.11412121 -3 209 C-3.26418736 207.45365119 -3.46874278 205.89705155 -3.6484375 204.33862305 C-3.76525879 203.34215256 -3.88208008 202.34568207 -4.00244141 201.3190155 C-4.12538574 200.22760757 -4.24833008 199.13619965 -4.375 198.01171875 C-4.50438965 196.88417679 -4.6337793 195.75663483 -4.76708984 194.59492493 C-5.04161989 192.18992047 -5.31384357 189.78465182 -5.58398438 187.37915039 C-5.99091666 183.768104 -6.40898189 180.1584747 -6.828125 176.54882812 C-9.32894317 154.69662317 -10.18673465 133.18401069 -10.18530273 111.1940918 C-10.18748265 107.46716768 -10.20569872 103.74054379 -10.22460938 100.01367188 C-10.26251832 83.58637417 -9.43032749 67.36104124 -8 51 C-7.77364449 48.25184396 -7.55018448 45.50346977 -7.32780457 42.75498962 C-6.57744741 33.94925961 -5.36868146 25.22959388 -4 16.5 C-3.83387207 15.43056152 -3.66774414 14.36112305 -3.49658203 13.25927734 C-3.25077393 11.75421631 -3.25077393 11.75421631 -3 10.21875 C-2.855625 9.33123047 -2.71125 8.44371094 -2.5625 7.52929688 C-2 5 -2 5 0 0 Z " fill="#0E0D0B" transform="translate(528,487)"/>
<path d="M0 0 C0.89874816 0.00092179 1.79749632 0.00184359 2.72347927 0.00279331 C3.75138073 0.00141865 4.77928219 0.00004398 5.83833218 -0.00137234 C6.975527 0.00222294 8.11272182 0.00581821 9.2843771 0.00952244 C10.47445873 0.00937641 11.66454037 0.00923038 12.89068508 0.00907993 C16.16326569 0.00965889 19.43580402 0.01468801 22.70837617 0.02165389 C26.1250196 0.02788815 29.54166379 0.02849128 32.95831203 0.0296793 C39.43232563 0.0327924 45.90632242 0.0410055 52.3803286 0.05102879 C59.74901216 0.06219058 67.11769651 0.06770054 74.48638642 0.07272422 C89.64814464 0.08318813 104.80988712 0.10078717 119.97163296 0.12304783 C119.82916796 2.47485693 119.68274308 4.82631287 119.53413296 7.17773533 C119.41231655 9.14202488 119.41231655 9.14202488 119.28803921 11.14599705 C118.89924846 16.03288078 118.18890153 20.83499739 117.44428921 25.67773533 C116.81027921 30.29919665 116.49587871 34.92138418 116.21772671 39.57617283 C115.97163296 42.12304783 115.97163296 42.12304783 114.97163296 44.12304783 C112.19207114 64.31452333 112.57530658 84.80484602 112.59427547 105.14045048 C112.59665193 107.95803899 112.59556404 110.77561268 112.59425259 113.59320164 C112.23224105 157.51004178 112.23224105 157.51004178 118.60883999 200.82763767 C119.09292166 203.8904478 118.97163296 207.02221875 118.97163296 210.12304783 C76.73163296 210.12304783 34.49163296 210.12304783 -9.02836704 210.12304783 C-18.28617954 183.50683689 -18.28617954 183.50683689 -20.90336704 170.74804783 C-21.18438267 169.46800877 -21.46539829 168.1879697 -21.75492954 166.86914158 C-25.53876987 149.07438307 -26.47106084 131.77200437 -26.46586704 113.62304783 C-26.46660221 112.50320499 -26.46733738 111.38336216 -26.46809483 110.22958469 C-26.42010632 82.29903365 -22.8241632 56.73292694 -14.02836704 30.12304783 C-13.49135162 28.42832333 -12.95613681 26.733027 -12.42289829 25.03711033 C-4.5296245 0.27478284 -4.5296245 0.27478284 0 0 Z " fill="#0E0D0B" transform="translate(375.0283670425415,486.8769521713257)"/>
<path d="M0 0 C40.26 0 80.52 0 122 0 C126.30451896 8.60903792 129.90959933 16.94583092 133 26 C133.42200684 27.22420654 133.42200684 27.22420654 133.85253906 28.47314453 C148.69485965 72.51089013 150.04915928 120.45088713 142 166 C141.85578613 166.83901855 141.71157227 167.67803711 141.56298828 168.54248047 C139.00217903 182.7495398 133.52948163 196.4115551 129 210 C86.76 210 44.52 210 1 210 C1 202.13623395 1 202.13623395 1.5859375 198.57421875 C1.7111377 197.78748779 1.83633789 197.00075684 1.96533203 196.19018555 C2.10052246 195.36429932 2.23571289 194.53841309 2.375 193.6875 C6.70164212 165.8503852 7.18899339 138.14218809 7.18530273 110.02197266 C7.18522141 106.76084862 7.19219207 103.49986489 7.20581055 100.23876953 C7.28449152 81.06628844 7.08188793 62.08633467 5 43 C4.86877243 41.79102051 4.86877243 41.79102051 4.7348938 40.55761719 C4.20039682 35.75833107 3.5859054 30.97287979 2.9375 26.1875 C2.76185463 24.84186402 2.58672646 23.49616043 2.41210938 22.15039062 C1.73519933 16.06814333 1.73519933 16.06814333 0.44360352 10.10668945 C-0.25122758 6.80691095 0 3.37214004 0 0 Z " fill="#0F0E0B" transform="translate(759,487)"/>
<path d="M0 0 C62.7 0 125.4 0 190 0 C188.1781429 9.71657118 186.42055596 18.8290759 183.5625 28.1875 C183.25465576 29.2185083 182.94681152 30.2495166 182.62963867 31.31176758 C181.76172032 34.21054628 180.88314726 37.10583068 180 40 C179.78666016 40.70382812 179.57332031 41.40765625 179.35351562 42.1328125 C178.54509221 44.79919149 177.72660639 47.46199405 176.89453125 50.12109375 C176.25113173 52.19177257 175.62565139 54.26805042 175.01171875 56.34765625 C174.51091797 58.03181641 174.51091797 58.03181641 174 59.75 C173.71125 60.73484375 173.4225 61.7196875 173.125 62.734375 C171.67276171 66.94990003 169.84279775 70.94341488 168 75 C167.24455547 76.72067962 166.49069786 78.44205668 165.73828125 80.1640625 C154.29256999 106.06689518 138.38792891 135.56019651 111.3125 147.75 C100.49554761 151.83186883 87.0334695 151.29669786 76.36328125 146.91796875 C68.39697017 142.97458794 62.20181695 137.23674447 56 131 C55.19433594 130.19433594 54.38867188 129.38867188 53.55859375 128.55859375 C37.54780816 111.65677313 27.1847855 88.54490891 19 67 C18.76539063 66.38842041 18.53078125 65.77684082 18.2890625 65.14672852 C12.80452887 50.729664 7.93644598 36.11747832 4.63525391 21.0402832 C3.58383523 16.25463241 2.29862266 11.71326271 0.5793457 7.12084961 C0 5 0 5 0 0 Z " fill="#0F0D0B" transform="translate(532,728)"/>
<path d="M0 0 C4.95082827 2.9548307 9.48283152 6.43077489 14 10 C14.80308594 10.60585938 15.60617187 11.21171875 16.43359375 11.8359375 C28.96476972 21.99883618 37.70497126 36.83681622 45 51 C45.34901367 51.66918457 45.69802734 52.33836914 46.05761719 53.02783203 C74 106.78794643 74 106.78794643 74 130 C12.62 130 -48.76 130 -112 130 C-108.80736817 116.43131471 -105.76547409 103.80927427 -100.2890625 91.109375 C-98.43822848 86.644939 -96.87548701 82.09008841 -95.30859375 77.51953125 C-87.74461165 57.17580625 -77.10188662 37.52948412 -63 21 C-62.30261719 20.15695312 -61.60523438 19.31390625 -60.88671875 18.4453125 C-46.28003286 1.37391051 -22.14588747 -10.76581099 0 0 Z " fill="#0E0D0B" transform="translate(646,325)"/>
<path d="M0 0 C39.6 0 79.2 0 120 0 C123.36281588 10.08844765 123.36281588 10.08844765 124.2890625 14.2578125 C124.61136841 15.66848999 124.61136841 15.66848999 124.94018555 17.10766602 C125.16617432 18.10338623 125.39216309 19.09910645 125.625 20.125 C128.01436139 30.36367438 130.75065091 40.47051691 133.6875 50.5625 C133.87959045 51.22630676 134.07168091 51.89011353 134.26959229 52.57403564 C136.27582433 59.48996869 138.35759569 66.30041966 141 73 C141.39960937 74.08023438 141.79921875 75.16046875 142.2109375 76.2734375 C144.3722606 82.03213059 146.6660452 87.58498737 149.5078125 93.0390625 C150.70422654 95.41309874 151.83027736 97.79180947 152.9296875 100.2109375 C158.80859484 113.08510208 165.43799786 125.45597916 173.828125 136.890625 C176 140 176 140 176 142 C134.14692626 134.6211083 91.53528047 109.01376306 61 80 C59.65201676 78.82619437 58.29821229 77.65902568 56.9375 76.5 C49.37860218 69.9169435 42.41968819 62.69128028 36 55 C35.53722656 54.45102051 35.07445312 53.90204102 34.59765625 53.33642578 C22.89618291 39.41356926 13.16125524 24.68463933 4 9 C3.43297363 8.04867187 3.43297363 8.04867187 2.85449219 7.078125 C0 2.22624012 0 2.22624012 0 0 Z " fill="#0F0E0C" transform="translate(380,728)"/>
<path d="M0 0 C0.88399947 0.00092179 1.76799894 0.00184359 2.67878628 0.00279331 C3.68985943 0.00141865 4.70093258 0.00004398 5.74264431 -0.00137234 C7.42038433 0.00402058 7.42038433 0.00402058 9.13201809 0.00952244 C10.30259258 0.00937641 11.47316708 0.00923038 12.67921352 0.00907993 C15.89807713 0.00965887 19.11689773 0.01468791 22.33575273 0.02165389 C25.6963417 0.02788826 29.05693143 0.02849129 32.41752529 0.0296793 C38.78529112 0.03279237 45.15303986 0.04100543 51.52079815 0.05102879 C58.76856499 0.06219068 66.01633263 0.06770057 73.26410592 0.07272422 C88.17703605 0.08318806 103.08995017 0.10078703 118.0028677 0.12304783 C108.9696739 23.05275949 92.15588565 43.49784228 75.54583645 61.35742283 C73.52893277 63.55092176 71.59775158 65.77360897 69.6903677 68.06054783 C42.14136345 99.67630984 1.79599509 121.89543036 -36.9971323 136.12304783 C-38.42427879 136.65543065 -39.85136843 137.1879659 -41.2783823 137.72070408 C-47.13062289 139.86527515 -52.90798617 141.78343568 -58.9971323 143.12304783 C-57.68066782 140.38739447 -56.23232078 137.84930913 -54.56353855 135.31445408 C-44.76555734 120.24152471 -36.01871314 104.69320506 -29.1924448 88.03711033 C-28.17741758 85.56256683 -27.08286219 83.16204294 -25.9346323 80.74804783 C-23.77475489 75.95132007 -22.31157276 70.94549758 -20.78424168 65.92089939 C-19.76510243 62.56846766 -18.72891432 59.25485529 -17.4346323 55.99804783 C-12.47681331 43.2615818 -9.85170366 29.5055139 -6.69806004 16.23754978 C-6.10926435 13.7650799 -5.51626552 11.29364625 -4.92291355 8.82226658 C-4.74375904 8.06201679 -4.56460453 7.30176701 -4.3800211 6.51847935 C-2.85525898 0.17591895 -2.85525898 0.17591895 0 0 Z " fill="#0F0E0C" transform="translate(755.9971323013306,727.8769521713257)"/>
<path d="M0 0 C-0.60585938 0.80179687 -1.21171875 1.60359375 -1.8359375 2.4296875 C-8.34558307 11.20578035 -13.74493157 20.34865379 -18.89941406 29.97363281 C-19.96860382 31.94219425 -21.07390981 33.88502012 -22.1953125 35.82421875 C-24.08033483 39.14136843 -25.54164837 42.47565024 -27 46 C-27.6216379 47.39733389 -28.24687785 48.79306884 -28.875 50.1875 C-32.66780846 58.72855722 -36.16862874 67.2539991 -39.0390625 76.15234375 C-39.90632461 78.72240096 -40.88133493 81.19072577 -41.9375 83.6875 C-46.39078994 94.6198902 -49.19609882 106.22801625 -51.74414062 117.73071289 C-52.90156418 122.90156418 -52.90156418 122.90156418 -54 124 C-55.45481495 124.0956161 -56.91425486 124.12188351 -58.37220764 124.12025452 C-59.31596756 124.12162918 -60.25972748 124.12300385 -61.23208618 124.12442017 C-62.27577362 124.12082489 -63.31946106 124.11722961 -64.39477539 124.11352539 C-65.48732132 124.11367142 -66.57986725 124.11381744 -67.70552063 124.1139679 C-71.33625233 124.11326822 -74.96693346 124.10547329 -78.59765625 124.09765625 C-81.10729443 124.09579226 -83.61693298 124.09436827 -86.12657166 124.09336853 C-92.06934593 124.08993348 -98.01210384 124.08204273 -103.95486969 124.07201904 C-111.38201925 124.05976253 -118.80917105 124.05437792 -126.23632812 124.04882812 C-139.49089473 124.03808811 -152.74544621 124.02120082 -166 124 C-159.64678083 107.65853372 -146.21306538 91.7519239 -133.67578125 79.67578125 C-131.8629262 77.8629262 -130.21931185 75.95601038 -128.5625 74 C-125.66495389 70.64629918 -122.58443424 67.7531572 -119.203125 64.89453125 C-116.73242966 62.76990848 -114.3758745 60.54254987 -112 58.3125 C-105.06767913 52.002556 -97.6141596 46.45653465 -90 41 C-89.41299316 40.57750977 -88.82598633 40.15501953 -88.22119141 39.71972656 C-79.94059856 33.82232873 -71.22733633 28.73865286 -62.375 23.75 C-61.35027588 23.17137207 -60.32555176 22.59274414 -59.26977539 21.99658203 C-49.81085213 16.74053416 -40.13086732 11.87761808 -29.875 8.375 C-28.71226562 7.9728125 -27.54953125 7.570625 -26.3515625 7.15625 C-25.24554687 6.7746875 -24.13953125 6.393125 -23 6 C-21.08202004 5.29523046 -19.16525184 4.58714998 -17.25 3.875 C-2.76502146 -1.38251073 -2.76502146 -1.38251073 0 0 Z " fill="#0E0D0B" transform="translate(556,331)"/>
<path d="M0 0 C7.33302916 1.69014055 14.42332412 4.00688312 21.5625 6.375 C22.75552734 6.76171875 23.94855469 7.1484375 25.17773438 7.546875 C31.23738508 9.55440797 36.5664083 11.66995515 42 15 C43.65503423 15.70499638 45.31051946 16.40908406 46.97265625 17.09716797 C74.15748203 29.20331991 98.62851879 47.30399396 120.2734375 67.51953125 C122.01566575 69.10450967 123.80627427 70.63884471 125.65234375 72.1015625 C127.76897641 73.81318225 129.44281575 75.48592209 131.1875 77.5625 C133.93891441 80.79422598 136.7833 83.90497916 139.6875 87 C148.10562541 96.24970315 155.44953722 106.38940859 162.25 116.875 C162.63293213 117.46385986 163.01586426 118.05271973 163.41040039 118.65942383 C166 122.74542518 166 122.74542518 166 125 C129.04 125 92.08 125 54 125 C52.76327443 121.28982328 51.63654063 117.78045082 50.703125 114.015625 C46.48031686 97.25986024 41.92935913 80.32486371 34.5625 64.625 C32.98811236 61.22003738 31.51931202 57.81881925 30.1875 54.3125 C23.11885127 36.42966358 13.32489792 18.91541932 1.8359375 3.52734375 C0 1 0 1 0 0 Z " fill="#0E0D0B" transform="translate(698,330)"/>
<path d="M0 0 C0.33 0 0.66 0 1 0 C1 1.65 1 3.3 1 5 C1.66 5 2.32 5 3 5 C4.18793827 13.38955715 4.12764134 21.73818328 4.09765625 30.19140625 C4.09578789 31.74795994 4.09436597 33.30451423 4.09336853 34.86106873 C4.08957622 38.92983667 4.07977453 42.99856811 4.06866455 47.06732178 C4.05837925 51.23042304 4.05385575 55.39353028 4.04882812 59.55664062 C4.03814886 67.70444371 4.02111259 75.8522173 4 84 C3.34 84 2.68 84 2 84 C1.98969254 83.33617813 1.97938507 82.67235626 1.96876526 81.98841858 C1.85944996 74.99488911 1.74497619 68.00145679 1.62768555 61.00805664 C1.58473171 58.40814269 1.54303451 55.80820763 1.50268555 53.20825195 C1.20724714 33.75937676 1.20724714 33.75937676 0.20507812 14.33789062 C-0.08870195 9.55627019 -0.09307505 4.78819448 0 0 Z " fill="#262626" transform="translate(732,541)"/>
<path d="M0 0 C0 0.66 0 1.32 0 2 C9.9 2 19.8 2 30 2 C30 2.33 30 2.66 30 3 C2.28 3 -25.44 3 -54 3 C-54 2.67 -54 2.34 -54 2 C-53.43037033 1.98969254 -52.86074066 1.97938507 -52.27384949 1.96876526 C-46.35294092 1.86070723 -40.43218475 1.74610855 -34.51147461 1.62768555 C-32.30089502 1.58433448 -30.09028191 1.54265954 -27.87963867 1.50268555 C-24.70481251 1.44498734 -21.53015514 1.38129138 -18.35546875 1.31640625 C-17.36475876 1.29969376 -16.37404877 1.28298126 -15.35331726 1.26576233 C-14.43258926 1.24581711 -13.51186127 1.22587189 -12.56323242 1.20532227 C-11.7527092 1.18977798 -10.94218597 1.1742337 -10.10710144 1.15821838 C-6.57654636 0.89311548 -3.63513733 -0.09824695 0 0 Z " fill="#010100" transform="translate(639,452)"/>
<path d="M0 0 C0.33 0 0.66 0 1 0 C1.33 7.26 1.66 14.52 2 22 C1.67 22 1.34 22 1 22 C0.67 39.82 0.34 57.64 0 76 C-0.33 76 -0.66 76 -1 76 C-1.02345056 68.74861945 -1.04107814 61.49724743 -1.05181217 54.24583626 C-1.05697097 50.87659965 -1.06450443 47.50740923 -1.07543945 44.13818359 C-1.12205261 29.39197281 -1.10672994 14.71064936 0 0 Z " fill="#343434" transform="translate(519,547)"/>
<path d="M0 0 C8.2425317 -0.26305952 15.91191011 0.39385449 24 2 C23.67 2.66 23.34 3.32 23 4 C15.1683819 4.2700558 7.72720775 3.23107719 0 2 C0 1.34 0 0.68 0 0 Z " fill="#383937" transform="translate(647,286)"/>
<path d="M0 0 C5.82658646 0.58661334 11.15462293 1.73304677 16.75 3.4375 C17.49121094 3.65470703 18.23242188 3.87191406 18.99609375 4.09570312 C22.49709614 5.14223257 25.80176641 6.1904731 29 8 C23.26157749 8.20413361 18.39460953 8.27141454 13 6 C13 5.34 13 4.68 13 4 C12.01 4.33 11.02 4.66 10 5 C10 4.34 10 3.68 10 3 C9.01 3.33 8.02 3.66 7 4 C7 3.34 7 2.68 7 2 C5.02 2 3.04 2 1 2 C0.67 1.34 0.34 0.68 0 0 Z " fill="#323231" transform="translate(522,895)"/>
<path d="M0 0 C0.33 0 0.66 0 1 0 C1.33 7.26 1.66 14.52 2 22 C1.67 22 1.34 22 1 22 C0.67 25.96 0.34 29.92 0 34 C-0.33 34 -0.66 34 -1 34 C-1.13947228 22.62526092 -0.73570866 11.35093354 0 0 Z " fill="#4C4C4B" transform="translate(519,547)"/>
<path d="M0 0 C2.54920625 3.17882948 4.41153172 6.49268645 6.25 10.125 C7.06210937 11.70667969 7.06210937 11.70667969 7.890625 13.3203125 C8.25671875 14.20460938 8.6228125 15.08890625 9 16 C8.67 16.66 8.34 17.32 8 18 C4.83694895 15.34189385 3.45854378 12.14902107 1.75 8.4375 C1.20859375 7.28121094 0.6671875 6.12492188 0.109375 4.93359375 C-0.25671875 3.96550781 -0.6228125 2.99742187 -1 2 C-0.67 1.34 -0.34 0.68 0 0 Z " fill="#2C2B2C" transform="translate(344,729)"/>
<path d="M0 0 C0.91145054 2.97022221 1.01801972 5.06485586 0.44140625 8.109375 C0.30283203 8.86347656 0.16425781 9.61757813 0.02148438 10.39453125 C-0.20571289 11.56048828 -0.20571289 11.56048828 -0.4375 12.75 C-0.58509766 13.54277344 -0.73269531 14.33554687 -0.88476562 15.15234375 C-1.24903966 17.10297246 -1.62352512 19.0516893 -2 21 C-2.33 21 -2.66 21 -3 21 C-4.71082377 13.20624725 -2.90209383 7.19214559 0 0 Z " fill="#3C3C3C" transform="translate(320,545)"/>
<path d="M0 0 C5.4185766 -0.22577402 9.77487721 0.53329887 15 2 C15 2.66 15 3.32 15 4 C9.9697924 3.47462276 4.98114761 2.89405214 0 2 C0 1.34 0 0.68 0 0 Z " fill="#212120" transform="translate(674,289)"/>
<path d="M0 0 C0.33 0.99 0.66 1.98 1 3 C-1.64 5.64 -4.28 8.28 -7 11 C-7.66 10.34 -8.32 9.68 -9 9 C-6.03 6.03 -3.06 3.06 0 0 Z " fill="#232121" transform="translate(827,791)"/>
<path d="M0 0 C0.83414558 2.38480081 1.11903995 3.63319086 0.328125 6.0703125 C-0.02765625 6.74835937 -0.3834375 7.42640625 -0.75 8.125 C-1.09546875 8.80820312 -1.4409375 9.49140625 -1.796875 10.1953125 C-3 12 -3 12 -6 14 C-4.50829734 9.0276578 -2.39542583 4.58154261 0 0 Z " fill="#2E2E2E" transform="translate(721,829)"/>
<path d="M0 0 C0.33 0 0.66 0 1 0 C1.76173392 4.3164922 2.16063604 7.74433453 1 12 C0.34 12 -0.32 12 -1 12 C-1.33 12.66 -1.66 13.32 -2 14 C-1.85795259 12.41632253 -1.71119847 10.83306682 -1.5625 9.25 C-1.48128906 8.36828125 -1.40007813 7.4865625 -1.31640625 6.578125 C-1.03761535 4.30649548 -0.61209423 2.20148177 0 0 Z " fill="#373736" transform="translate(934,646)"/>
<path d="M0 0 C0.66 0 1.32 0 2 0 C0.45730076 4.72065967 -1.07794619 9.41664092 -3 14 C-3.66 14 -4.32 14 -5 14 C-3.45730076 9.27934033 -1.92205381 4.58335908 0 0 Z " fill="#292A29" transform="translate(371,489)"/>
<path d="M0 0 C0.33 0 0.66 0 1 0 C1 9 1 9 0 12 C-0.66 12 -1.32 12 -2 12 C-2.33 12.66 -2.66 13.32 -3 14 C-2.48594831 9.03083364 -1.76615118 4.70973649 0 0 Z " fill="#C2C1C2" transform="translate(509,427)"/>
<path d="M0 0 C0 0.33 0 0.66 0 1 C-0.84304688 1.13277344 -1.68609375 1.26554687 -2.5546875 1.40234375 C-3.65039062 1.57894531 -4.74609375 1.75554687 -5.875 1.9375 C-6.96554687 2.11152344 -8.05609375 2.28554688 -9.1796875 2.46484375 C-11.93821546 2.85551159 -11.93821546 2.85551159 -14 4 C-16.00800456 3.71887936 -18.01014051 3.38932033 -20 3 C-20 2.67 -20 2.34 -20 2 C-13.25846717 0.74158054 -6.86515862 -0.26404456 0 0 Z " fill="#B2B2B1" transform="translate(593,289)"/>
<path d="M0 0 C4.51617599 -0.07654536 8.59085217 -0.10228696 13 1 C9.8250906 2.9078584 7.89414789 3.1609041 4.25 2.625 C3.45078125 2.51414062 2.6515625 2.40328125 1.828125 2.2890625 C1.22484375 2.19367187 0.6215625 2.09828125 0 2 C0 1.34 0 0.68 0 0 Z " fill="#1B1B1B" transform="translate(576,909)"/>
<path d="M0 0 C3.39192363 0.59283621 5.2107757 1.76743189 7.75 4.0625 C8.67039062 4.88427734 8.67039062 4.88427734 9.609375 5.72265625 C10.29773438 6.35494141 10.29773438 6.35494141 11 7 C10.01 7.33 9.02 7.66 8 8 C5.95703125 6.6015625 5.95703125 6.6015625 3.8125 4.625 C3.09707031 3.97789062 2.38164062 3.33078125 1.64453125 2.6640625 C0 1 0 1 0 0 Z " fill="#1A1919" transform="translate(427,840)"/>
<path d="M0 0 C0.66 0.99 1.32 1.98 2 3 C0.35 5.97 -1.3 8.94 -3 12 C-3.66 12 -4.32 12 -5 12 C-3.68938409 7.76570244 -2.05643741 3.92592596 0 0 Z " fill="#262626" transform="translate(906,735)"/>
<path d="M0 0 C1.90389849 2.85584773 2.69462177 4.9311762 3.625 8.1875 C3.88539063 9.08855469 4.14578125 9.98960937 4.4140625 10.91796875 C4.60742188 11.60503906 4.80078125 12.29210937 5 13 C4.34 12.67 3.68 12.34 3 12 C3 11.01 3 10.02 3 9 C2.34 9 1.68 9 1 9 C-1.125 2.25 -1.125 2.25 0 0 Z " fill="#323233" transform="translate(333,701)"/>
<path d="M0 0 C2.25245881 2.68841859 3.88213958 4.64641875 5 8 C2.03 7.505 2.03 7.505 -1 7 C-0.67 4.69 -0.34 2.38 0 0 Z " fill="#212121" transform="translate(551,862)"/>
<path d="M0 0 C-0.66 0 -1.32 0 -2 0 C-2 0.66 -2 1.32 -2 2 C-5.63 2 -9.26 2 -13 2 C-13 1.67 -13 1.34 -13 1 C-11.58622218 0.63447197 -10.16879424 0.28304505 -8.75 -0.0625 C-7.96109375 -0.25972656 -7.1721875 -0.45695313 -6.359375 -0.66015625 C-3.89605178 -1.01497267 -2.34395868 -0.76877544 0 0 Z " fill="#3E3E3E" transform="translate(694,906)"/>
<path d="M0 0 C-1.32 0.33 -2.64 0.66 -4 1 C-4 1.66 -4 2.32 -4 3 C-5.98 3.66 -7.96 4.32 -10 5 C-10.66 4.34 -11.32 3.68 -12 3 C-10.3789897 2.30314502 -8.75303934 1.61777139 -7.125 0.9375 C-6.22007812 0.55464844 -5.31515625 0.17179688 -4.3828125 -0.22265625 C-2 -1 -2 -1 0 0 Z " fill="#2A2A2A" transform="translate(752,887)"/>
<path d="M0 0 C0.99 0 1.98 0 3 0 C2.5359375 1.1446875 2.5359375 1.1446875 2.0625 2.3125 C1.32106407 4.18789677 0.63771783 6.08684652 0 8 C-0.99 8.33 -1.98 8.66 -3 9 C-2.01 6.03 -1.02 3.06 0 0 Z " fill="#D9D8D8" transform="translate(516,407)"/>
<path d="M0 0 C-1.49097658 3.7952131 -3.75700849 5.61042731 -7 8 C-7 5 -7 5 -4.625 2.3125 C-2 0 -2 0 0 0 Z " fill="#121212" transform="translate(413,373)"/>
<path d="M0 0 C3 1 3 1 4.75 3.9375 C5.1625 4.948125 5.575 5.95875 6 7 C5.67 7.66 5.34 8.32 5 9 C1.9083091 6.47043472 1.09068668 3.77545388 0 0 Z " fill="#232223" transform="translate(347,738)"/>
<path d="M0 0 C0.66 0.33 1.32 0.66 2 1 C1.50168276 4.68754757 0.89932357 6.60490662 -2 9 C-2.33 8.34 -2.66 7.68 -3 7 C-2.06421005 4.64018187 -1.06652192 2.30368736 0 0 Z " fill="#262625" transform="translate(910,726)"/>
<path d="M0 0 C0.99 0.495 0.99 0.495 2 1 C2 1.66 2 2.32 2 3 C2.66 3 3.32 3 4 3 C6 6 6 6 5.625 8.1875 C5.41875 8.785625 5.2125 9.38375 5 10 C4.15801693 8.90241493 3.32669329 7.79664683 2.5 6.6875 C2.0359375 6.07261719 1.571875 5.45773437 1.09375 4.82421875 C0 3 0 3 0 0 Z " fill="#171716" transform="translate(873,408)"/>
<path d="M0 0 C0.66 0 1.32 0 2 0 C2.38922918 1.28745036 2.76098036 2.58019597 3.125 3.875 C3.33382812 4.59429688 3.54265625 5.31359375 3.7578125 6.0546875 C3.83773437 6.69664062 3.91765625 7.33859375 4 8 C3.34 8.66 2.68 9.32 2 10 C0.68373308 6.38026598 0 3.90432869 0 0 Z " fill="#1F201F" transform="translate(925,510)"/>
<path d="M0 0 C-1.39332574 3.36720387 -2.9789286 4.9859524 -6 7 C-6.33 6.34 -6.66 5.68 -7 5 C-2.25 0 -2.25 0 0 0 Z " fill="#1B1A1A" transform="translate(425,362)"/>
<path d="M0 0 C2.97 0.495 2.97 0.495 6 1 C6 2.32 6 3.64 6 5 C6.33 5.66 6.66 6.32 7 7 C3.17053157 5.54744301 1.87949705 3.57104439 0 0 Z " fill="#1F1E1F" transform="translate(698,330)"/>
<path d="M0 0 C0.33 0 0.66 0 1 0 C2.0070238 5.03511899 1.97387813 8.23947038 0 13 C-0.33 13 -0.66 13 -1 13 C-1.07654536 8.48382401 -1.10228696 4.40914783 0 0 Z " fill="#5B5B5A" transform="translate(523,512)"/>
<path d="M0 0 C0.66 0 1.32 0 2 0 C1.34 3.3 0.68 6.6 0 10 C-0.66 9.01 -1.32 8.02 -2 7 C-1.125 3.3125 -1.125 3.3125 0 0 Z " fill="#2C2B2B" transform="translate(328,507)"/>
<path d="M0 0 C0.66 0 1.32 0 2 0 C3.25664978 2.90600261 4 4.79604584 4 8 C3.34 8 2.68 8 2 8 C0.74335022 5.09399739 0 3.20395416 0 0 Z " fill="#2A292B" transform="translate(886,502)"/>
<path d="M0 0 C0.66 0.33 1.32 0.66 2 1 C1.34 3.97 0.68 6.94 0 10 C-0.33 10 -0.66 10 -1 10 C-1.125 3.375 -1.125 3.375 0 0 Z " fill="#282727" transform="translate(331,497)"/>
<path d="M0 0 C0.66 0 1.32 0 2 0 C3.25664978 2.90600261 4 4.79604584 4 8 C3.34 8 2.68 8 2 8 C0.74335022 5.09399739 0 3.20395416 0 0 Z " fill="#262627" transform="translate(701,401)"/>
</svg>
