<?xml version="1.0" encoding="UTF-8"?>
<svg version="1.1" xmlns="http://www.w3.org/2000/svg" width="1254" height="1254">
<path d="M0 0 C413.82 0 827.64 0 1254 0 C1254 413.82 1254 827.64 1254 1254 C840.18 1254 426.36 1254 0 1254 C0 840.18 0 426.36 0 0 Z " fill="#F8E7D2" transform="translate(0,0)"/>
<path d="M0 0 C0.80179688 0.23332031 1.60359375 0.46664062 2.4296875 0.70703125 C16.29507084 5.43681155 24.36622869 17.45804846 30.6875 30 C32.15330554 32.98680879 33.58041075 35.99098614 35 39 C35.43441406 39.91813477 35.86882812 40.83626953 36.31640625 41.78222656 C42.40376357 54.69878488 48.24740741 67.71708107 53.9375 80.8125 C54.20654144 81.42990051 54.47558289 82.04730103 54.7527771 82.68341064 C57.97038498 90.07878184 61.01936281 97.50773939 63.82641602 105.0690918 C65.05794976 108.1447237 66.48061919 111.05709433 68 114 C70.67231616 119.18060269 72.75368055 124.45178224 74.78515625 129.91015625 C76.22774863 133.57925777 77.96385474 137.02320303 79.76953125 140.5234375 C81.49898434 144.00430499 82.94045743 147.58291659 84.41015625 151.1796875 C86.98729099 157.43269468 89.73115528 163.61598757 92.43432617 169.81518555 C93.0585144 171.24664917 93.0585144 171.24664917 93.6953125 172.70703125 C94.29496826 174.08145386 94.29496826 174.08145386 94.90673828 175.48364258 C95.82172046 177.58965448 96.72671018 179.6993386 97.625 181.8125 C98.98615684 184.96790903 100.39131156 188.08779416 101.875 191.1875 C102.58269531 192.69376953 102.58269531 192.69376953 103.3046875 194.23046875 C106.13729472 198.85793078 109.83006078 201.46898796 115 203 C117.88578319 203.44195332 120.77888452 203.69571386 123.6875 203.9375 C130.00696527 204.46551161 136.21139811 205.34120756 142.45703125 206.41796875 C151.11340572 207.90451739 159.7875862 209.0377464 168.50756836 210.07717896 C182.90650305 211.7977099 197.26241012 213.71044823 211.60015869 215.88034058 C221.67635787 217.40299558 231.75507304 218.73146593 241.875 219.9375 C253.75744621 221.3720245 265.56621847 223.11542142 277.375 225.0625 C278.13971619 225.18656219 278.90443237 225.31062439 279.69232178 225.43844604 C298.95992381 228.58039576 314.62287077 233.1094803 327.375 248.9375 C335.45735328 260.42174774 337.26623072 274.34053609 336 288 C332.14948438 308.19332909 318.44189988 322.35053067 303.67041016 335.50292969 C300.85177517 338.02907259 298.08616147 340.61222016 295.3125 343.1875 C290.75134121 347.40425443 286.15308707 351.57673072 281.52734375 355.72265625 C278.66917797 358.29809775 275.83289739 360.89685764 273 363.5 C268.54938022 367.58920545 264.06921883 371.64369115 259.5703125 375.6796875 C256.65571607 378.31079735 253.76457147 380.96648594 250.875 383.625 C247.68130656 386.5629982 244.4760467 389.48049774 241.1875 392.3125 C236.55323247 396.32757521 232.10952259 400.54663695 227.63623047 404.73876953 C221.99323482 410.02196272 216.25357493 415.19082842 210.49511719 420.34765625 C208.88868068 421.79001025 207.28769854 423.23823123 205.6875 424.6875 C204.72199219 425.55761719 203.75648438 426.42773438 202.76171875 427.32421875 C197.68850878 432.23956363 193.21394255 436.68274908 192.84765625 444.07421875 C193.41143544 453.55595964 194.96724573 462.65594463 196.84985352 471.96142578 C199.1154197 483.24696189 200.92309758 494.59130452 202.68041992 505.96557617 C204.03205297 514.60864159 205.61001451 523.17908325 207.36328125 531.75 C210.32328191 546.25366066 212.75853086 560.83713404 215.1875 575.4375 C215.84482492 579.37538897 216.50423945 583.31292378 217.16487122 587.2502594 C217.570745 589.67080063 217.97490764 592.09162968 218.3769989 594.51280212 C219.34423926 600.29662141 220.37332896 606.05363931 221.58096313 611.79244995 C225.40954307 631.96199237 224.86906498 652.5742244 213.91796875 670.2734375 C206.24848652 681.17628596 195.13896489 688.29368686 181.98828125 690.6484375 C146.95404021 694.77011292 117.80483421 672.07933719 89.14746094 655.00219727 C81.14808735 650.24422927 73.09215517 645.59732426 65 641 C55.73624679 635.7365404 46.530649 630.38796919 37.375 624.9375 C28.25757289 619.51244725 19.11908373 614.12805008 9.9375 608.8125 C8.88546387 608.20075928 7.83342773 607.58901855 6.74951172 606.95874023 C3.84555977 605.28248478 0.92476821 603.63957285 -2 602 C-2.85062012 601.49388184 -3.70124023 600.98776367 -4.57763672 600.46630859 C-10.70725442 597.02691869 -16.00221759 595.61635305 -23 597 C-27.22407682 598.67355541 -31.00178269 600.88822238 -34.875 603.25 C-35.96433838 603.88752197 -37.05367676 604.52504395 -38.17602539 605.18188477 C-40.40384773 606.48657361 -42.62632914 607.80042696 -44.84326172 609.12353516 C-48.50968791 611.30297458 -52.21141832 613.41351602 -55.92333984 615.51416016 C-62.37408485 619.16611621 -68.79121205 622.87698084 -75.20703125 626.58984375 C-87.00648476 633.41685432 -98.83954745 640.17002302 -110.74951172 646.80249023 C-117.84232059 650.76317084 -124.87108185 654.82196833 -131.875 658.9375 C-140.05392893 663.73511597 -148.27154322 668.45608423 -156.55059814 673.07839966 C-158.25315189 674.02935145 -159.95352137 674.9842106 -161.65380859 675.93920898 C-171.0828275 681.17874824 -180.610348 685.98850667 -191 689 C-191.6703125 689.20625 -192.340625 689.4125 -193.03125 689.625 C-206.65833895 693.28600897 -221.04808709 691.52129497 -233.3125 684.75 C-246.73208785 676.33876288 -254.37975568 663.50367131 -258.15625 648.31640625 C-262.24340494 629.28133359 -255.97720168 608.54852221 -252.1875 589.921875 C-251.22499018 585.16647491 -250.32411358 580.40617164 -249.5 575.625 C-247.57140913 564.44704475 -245.4751008 553.30047384 -243.39971924 542.14898682 C-242.82642529 539.06682058 -242.25418369 535.98445923 -241.68193054 532.90209961 C-241.20449755 530.33100183 -240.72665957 527.75997953 -240.2487793 525.18896484 C-239.57830051 521.58147014 -238.9094245 517.97368278 -238.24145508 514.36572266 C-236.56478636 505.32284533 -234.86870638 496.28439514 -233.12298584 487.25456238 C-232.28100018 482.89658446 -231.4462353 478.53723477 -230.61169434 474.17782593 C-230.20791196 472.08012774 -229.80051401 469.98312187 -229.38928223 467.88687134 C-228.81282399 464.9471057 -228.24899758 462.0051544 -227.6875 459.0625 C-227.43030182 457.77752876 -227.43030182 457.77752876 -227.16790771 456.46659851 C-225.00160364 444.99864072 -225.00160364 444.99864072 -227.75 434 C-231.91170319 428.22578504 -237.65419383 423.64333493 -243 419 C-243.68191406 418.40574219 -244.36382812 417.81148437 -245.06640625 417.19921875 C-246.29034176 416.13389259 -247.51564283 415.07013361 -248.7421875 414.0078125 C-252.50903227 410.65805781 -256.17650951 407.20109574 -259.86230469 403.76269531 C-263.50068102 400.37456732 -267.18058393 397.05237181 -270.9453125 393.8046875 C-273.66924703 391.41218226 -276.33343269 388.95594058 -279 386.5 C-282.3002483 383.46107665 -285.6094941 380.43843844 -289 377.5 C-293.89907474 373.24873679 -298.65517929 368.84117095 -303.42675781 364.44824219 C-305.9906259 362.08808305 -308.55720296 359.73088342 -311.125 357.375 C-311.62483398 356.91641602 -312.12466797 356.45783203 -312.63964844 355.98535156 C-316.54712871 352.4049854 -320.48477934 348.85931371 -324.4296875 345.3203125 C-327.86489176 342.21923145 -331.26846162 339.08426842 -334.6730957 335.94970703 C-337.47327365 333.37808733 -340.30344487 330.85196186 -343.1875 328.375 C-344.46284669 327.25511912 -345.73359535 326.12998301 -347 325 C-347.71671875 324.36191406 -348.4334375 323.72382812 -349.171875 323.06640625 C-361.06661725 311.88945017 -369.26642298 297.58951435 -370.15625 281.10546875 C-370.58326909 266.10642333 -366.50089684 254.68984845 -356.1875 243.6875 C-337.01823414 225.72776717 -307.63687627 225.10956711 -282.88964844 222.39428711 C-276.15955899 221.6507272 -269.51049606 220.78436959 -262.85791016 219.5012207 C-258.09182714 218.66534436 -253.28780146 218.12981517 -248.48535156 217.54931641 C-243.62820785 216.96103384 -238.77898127 216.31741717 -233.9296875 215.66796875 C-233.04673004 215.54993393 -232.16377258 215.43189911 -231.25405884 215.31028748 C-228.46096892 214.93654792 -225.66797996 214.5620603 -222.875 214.1875 C-218.88548729 213.65311708 -214.89590021 213.11929286 -210.90625 212.5859375 C-209.90774017 212.452444 -208.90923035 212.3189505 -207.88046265 212.18141174 C-200.50079323 211.19644922 -193.11885764 210.22978859 -185.73574829 209.27099609 C-178.78128169 208.36734433 -171.82878281 207.44959182 -164.87792969 206.51855469 C-162.4623593 206.19554591 -160.04640523 205.87537779 -157.62988281 205.55957031 C-154.91734962 205.20161139 -152.20850799 204.82454661 -149.5 204.4375 C-148.7889209 204.34702393 -148.0778418 204.25654785 -147.34521484 204.16333008 C-142.68945762 203.46162504 -139.59541981 202.0348979 -136 199 C-131.88825984 193.00996012 -129.37121264 186.11039045 -126.5625 179.4375 C-125.76045522 177.5473933 -124.95667981 175.65802798 -124.15289307 173.7686615 C-123.59719116 172.46211533 -123.04198026 171.15536023 -122.48724365 169.84840393 C-117.7086208 158.59195879 -112.82428827 147.38093874 -107.94335938 136.1685791 C-106.95324499 133.89252035 -105.96480493 131.6157393 -104.9765625 129.33886719 C-95.73848785 108.06517205 -86.2888119 86.90755113 -76.45654297 65.90112305 C-75.70652454 64.29744801 -74.95668326 62.69369011 -74.20703125 61.08984375 C-73.84760437 60.32134094 -73.48817749 59.55283813 -73.11785889 58.76104736 C-70.44038003 53.01021636 -67.86968452 47.21761103 -65.39155579 41.3780365 C-60.98683278 31.10787966 -55.33594232 21.45154646 -48 13 C-47.48179687 12.37609375 -46.96359375 11.7521875 -46.4296875 11.109375 C-34.81394362 -1.79700709 -16.09847156 -4.85197836 0 0 Z " fill="#FDC60E" transform="translate(644,255)"/>
<path d="M0 0 C0.80179688 0.23332031 1.60359375 0.46664062 2.4296875 0.70703125 C16.29507084 5.43681155 24.36622869 17.45804846 30.6875 30 C32.15330554 32.98680879 33.58041075 35.99098614 35 39 C35.43441406 39.91813477 35.86882812 40.83626953 36.31640625 41.78222656 C42.40376357 54.69878488 48.24740741 67.71708107 53.9375 80.8125 C54.20654144 81.42990051 54.47558289 82.04730103 54.7527771 82.68341064 C57.97038498 90.07878184 61.01936281 97.50773939 63.82641602 105.0690918 C65.05794976 108.1447237 66.48061919 111.05709433 68 114 C70.67231616 119.18060269 72.75368055 124.45178224 74.78515625 129.91015625 C76.22774863 133.57925777 77.96385474 137.02320303 79.76953125 140.5234375 C81.49898434 144.00430499 82.94045743 147.58291659 84.41015625 151.1796875 C86.98729099 157.43269468 89.73115528 163.61598757 92.43432617 169.81518555 C93.0585144 171.24664917 93.0585144 171.24664917 93.6953125 172.70703125 C94.29496826 174.08145386 94.29496826 174.08145386 94.90673828 175.48364258 C95.82172046 177.58965448 96.72671018 179.6993386 97.625 181.8125 C98.98615684 184.96790903 100.39131156 188.08779416 101.875 191.1875 C102.58269531 192.69376953 102.58269531 192.69376953 103.3046875 194.23046875 C106.13729472 198.85793078 109.83006078 201.46898796 115 203 C117.88578319 203.44195332 120.77888452 203.69571386 123.6875 203.9375 C130.00696527 204.46551161 136.21139811 205.34120756 142.45703125 206.41796875 C151.11340572 207.90451739 159.7875862 209.0377464 168.50756836 210.07717896 C182.90650305 211.7977099 197.26241012 213.71044823 211.60015869 215.88034058 C221.67635787 217.40299558 231.75507304 218.73146593 241.875 219.9375 C253.75744621 221.3720245 265.56621847 223.11542142 277.375 225.0625 C278.13971619 225.18656219 278.90443237 225.31062439 279.69232178 225.43844604 C298.95992381 228.58039576 314.62287077 233.1094803 327.375 248.9375 C335.45735328 260.42174774 337.26623072 274.34053609 336 288 C332.14948438 308.19332909 318.44189988 322.35053067 303.67041016 335.50292969 C300.85177517 338.02907259 298.08616147 340.61222016 295.3125 343.1875 C290.75134121 347.40425443 286.15308707 351.57673072 281.52734375 355.72265625 C278.66917797 358.29809775 275.83289739 360.89685764 273 363.5 C268.54938022 367.58920545 264.06921883 371.64369115 259.5703125 375.6796875 C256.65571607 378.31079735 253.76457147 380.96648594 250.875 383.625 C247.68130656 386.5629982 244.4760467 389.48049774 241.1875 392.3125 C236.55323247 396.32757521 232.10952259 400.54663695 227.63623047 404.73876953 C221.99323482 410.02196272 216.25357493 415.19082842 210.49511719 420.34765625 C208.88868068 421.79001025 207.28769854 423.23823123 205.6875 424.6875 C204.72199219 425.55761719 203.75648438 426.42773438 202.76171875 427.32421875 C197.68850878 432.23956363 193.21394255 436.68274908 192.84765625 444.07421875 C193.41143544 453.55595964 194.96724573 462.65594463 196.84985352 471.96142578 C199.1154197 483.24696189 200.92309758 494.59130452 202.68041992 505.96557617 C204.03205297 514.60864159 205.61001451 523.17908325 207.36328125 531.75 C210.32328191 546.25366066 212.75853086 560.83713404 215.1875 575.4375 C215.84482492 579.37538897 216.50423945 583.31292378 217.16487122 587.2502594 C217.570745 589.67080063 217.97490764 592.09162968 218.3769989 594.51280212 C219.34423926 600.29662141 220.37332896 606.05363931 221.58096313 611.79244995 C225.40954307 631.96199237 224.86906498 652.5742244 213.91796875 670.2734375 C206.24848652 681.17628596 195.13896489 688.29368686 181.98828125 690.6484375 C146.95404021 694.77011292 117.80483421 672.07933719 89.14746094 655.00219727 C81.14808735 650.24422927 73.09215517 645.59732426 65 641 C55.73624679 635.7365404 46.530649 630.38796919 37.375 624.9375 C28.25757289 619.51244725 19.11908373 614.12805008 9.9375 608.8125 C8.88546387 608.20075928 7.83342773 607.58901855 6.74951172 606.95874023 C3.84555977 605.28248478 0.92476821 603.63957285 -2 602 C-2.85062012 601.49388184 -3.70124023 600.98776367 -4.57763672 600.46630859 C-10.70725442 597.02691869 -16.00221759 595.61635305 -23 597 C-27.22407682 598.67355541 -31.00178269 600.88822238 -34.875 603.25 C-35.96433838 603.88752197 -37.05367676 604.52504395 -38.17602539 605.18188477 C-40.40384773 606.48657361 -42.62632914 607.80042696 -44.84326172 609.12353516 C-48.50968791 611.30297458 -52.21141832 613.41351602 -55.92333984 615.51416016 C-62.37408485 619.16611621 -68.79121205 622.87698084 -75.20703125 626.58984375 C-87.00648476 633.41685432 -98.83954745 640.17002302 -110.74951172 646.80249023 C-117.84232059 650.76317084 -124.87108185 654.82196833 -131.875 658.9375 C-140.05392893 663.73511597 -148.27154322 668.45608423 -156.55059814 673.07839966 C-158.25315189 674.02935145 -159.95352137 674.9842106 -161.65380859 675.93920898 C-171.0828275 681.17874824 -180.610348 685.98850667 -191 689 C-191.6703125 689.20625 -192.340625 689.4125 -193.03125 689.625 C-206.65833895 693.28600897 -221.04808709 691.52129497 -233.3125 684.75 C-246.73208785 676.33876288 -254.37975568 663.50367131 -258.15625 648.31640625 C-262.24340494 629.28133359 -255.97720168 608.54852221 -252.1875 589.921875 C-251.22499018 585.16647491 -250.32411358 580.40617164 -249.5 575.625 C-247.57140913 564.44704475 -245.4751008 553.30047384 -243.39971924 542.14898682 C-242.82642529 539.06682058 -242.25418369 535.98445923 -241.68193054 532.90209961 C-241.20449755 530.33100183 -240.72665957 527.75997953 -240.2487793 525.18896484 C-239.57830051 521.58147014 -238.9094245 517.97368278 -238.24145508 514.36572266 C-236.56478636 505.32284533 -234.86870638 496.28439514 -233.12298584 487.25456238 C-232.28100018 482.89658446 -231.4462353 478.53723477 -230.61169434 474.17782593 C-230.20791196 472.08012774 -229.80051401 469.98312187 -229.38928223 467.88687134 C-228.81282399 464.9471057 -228.24899758 462.0051544 -227.6875 459.0625 C-227.43030182 457.77752876 -227.43030182 457.77752876 -227.16790771 456.46659851 C-225.00160364 444.99864072 -225.00160364 444.99864072 -227.75 434 C-231.91170319 428.22578504 -237.65419383 423.64333493 -243 419 C-243.68191406 418.40574219 -244.36382812 417.81148437 -245.06640625 417.19921875 C-246.29034176 416.13389259 -247.51564283 415.07013361 -248.7421875 414.0078125 C-252.50903227 410.65805781 -256.17650951 407.20109574 -259.86230469 403.76269531 C-263.50068102 400.37456732 -267.18058393 397.05237181 -270.9453125 393.8046875 C-273.66924703 391.41218226 -276.33343269 388.95594058 -279 386.5 C-282.3002483 383.46107665 -285.6094941 380.43843844 -289 377.5 C-293.89907474 373.24873679 -298.65517929 368.84117095 -303.42675781 364.44824219 C-305.9906259 362.08808305 -308.55720296 359.73088342 -311.125 357.375 C-311.62483398 356.91641602 -312.12466797 356.45783203 -312.63964844 355.98535156 C-316.54712871 352.4049854 -320.48477934 348.85931371 -324.4296875 345.3203125 C-327.86489176 342.21923145 -331.26846162 339.08426842 -334.6730957 335.94970703 C-337.47327365 333.37808733 -340.30344487 330.85196186 -343.1875 328.375 C-344.46284669 327.25511912 -345.73359535 326.12998301 -347 325 C-347.71671875 324.36191406 -348.4334375 323.72382812 -349.171875 323.06640625 C-361.06661725 311.88945017 -369.26642298 297.58951435 -370.15625 281.10546875 C-370.58326909 266.10642333 -366.50089684 254.68984845 -356.1875 243.6875 C-337.01823414 225.72776717 -307.63687627 225.10956711 -282.88964844 222.39428711 C-276.15955899 221.6507272 -269.51049606 220.78436959 -262.85791016 219.5012207 C-258.09182714 218.66534436 -253.28780146 218.12981517 -248.48535156 217.54931641 C-243.62820785 216.96103384 -238.77898127 216.31741717 -233.9296875 215.66796875 C-233.04673004 215.54993393 -232.16377258 215.43189911 -231.25405884 215.31028748 C-228.46096892 214.93654792 -225.66797996 214.5620603 -222.875 214.1875 C-218.88548729 213.65311708 -214.89590021 213.11929286 -210.90625 212.5859375 C-209.90774017 212.452444 -208.90923035 212.3189505 -207.88046265 212.18141174 C-200.50079323 211.19644922 -193.11885764 210.22978859 -185.73574829 209.27099609 C-178.78128169 208.36734433 -171.82878281 207.44959182 -164.87792969 206.51855469 C-162.4623593 206.19554591 -160.04640523 205.87537779 -157.62988281 205.55957031 C-154.91734962 205.20161139 -152.20850799 204.82454661 -149.5 204.4375 C-148.7889209 204.34702393 -148.0778418 204.25654785 -147.34521484 204.16333008 C-142.68945762 203.46162504 -139.59541981 202.0348979 -136 199 C-131.88825984 193.00996012 -129.37121264 186.11039045 -126.5625 179.4375 C-125.76045522 177.5473933 -124.95667981 175.65802798 -124.15289307 173.7686615 C-123.59719116 172.46211533 -123.04198026 171.15536023 -122.48724365 169.84840393 C-117.7086208 158.59195879 -112.82428827 147.38093874 -107.94335938 136.1685791 C-106.95324499 133.89252035 -105.96480493 131.6157393 -104.9765625 129.33886719 C-95.73848785 108.06517205 -86.2888119 86.90755113 -76.45654297 65.90112305 C-75.70652454 64.29744801 -74.95668326 62.69369011 -74.20703125 61.08984375 C-73.84760437 60.32134094 -73.48817749 59.55283813 -73.11785889 58.76104736 C-70.44038003 53.01021636 -67.86968452 47.21761103 -65.39155579 41.3780365 C-60.98683278 31.10787966 -55.33594232 21.45154646 -48 13 C-47.48179687 12.37609375 -46.96359375 11.7521875 -46.4296875 11.109375 C-34.81394362 -1.79700709 -16.09847156 -4.85197836 0 0 Z M-25 48 C-29.57602975 56.19412081 -33.18645024 64.87970561 -36.8324585 73.51550293 C-38.45958482 77.36722363 -40.10098223 81.21285546 -41.7421875 85.05859375 C-42.25962021 86.27163681 -42.25962021 86.27163681 -42.7875061 87.50918579 C-46.75122912 96.78482528 -50.81048395 106.01819052 -54.875 115.25 C-56.39079827 118.69393419 -57.90643826 122.13793796 -59.421875 125.58203125 C-59.79827118 126.43735443 -60.17466736 127.29267761 -60.56246948 128.17391968 C-65.46192949 139.31426659 -70.31550902 150.47464831 -75.16748047 161.63574219 C-78.85938783 170.12260912 -82.58160592 178.59467845 -86.36416626 187.04161072 C-88.38288226 191.56137557 -90.27747347 196.11275974 -92.08203125 200.72265625 C-102.96018349 227.70973181 -102.96018349 227.70973181 -112.5 234.5625 C-113.62921875 235.39974609 -113.62921875 235.39974609 -114.78125 236.25390625 C-125.58297557 242.1135802 -137.32419021 243.27618052 -149.3125 244.75 C-151.26771563 244.99965791 -153.22278977 245.25042592 -155.17773438 245.50219727 C-160.60463031 246.19797178 -166.03334029 246.87855544 -171.46246338 247.55670166 C-177.67784132 248.33556758 -183.89156763 249.12742197 -190.10546875 249.91796875 C-192.73298439 250.25200937 -195.36050724 250.58599319 -197.98803711 250.91992188 C-198.64589108 251.00353407 -199.30374506 251.08714626 -199.981534 251.17329216 C-204.67833098 251.77006756 -209.37537569 252.36486873 -214.07250977 252.95898438 C-238.84441141 256.09339709 -263.60645135 259.2994773 -288.35113525 262.64257812 C-290.8294034 262.97698072 -293.30797532 263.30903534 -295.78662109 263.640625 C-299.67238291 264.16214663 -303.55525588 264.70285268 -307.4375 265.25 C-308.47293945 265.38889648 -309.50837891 265.52779297 -310.57519531 265.67089844 C-316.96600559 266.60172899 -321.61442005 268.23674525 -326.875 272.125 C-329.37366408 275.50554552 -329.83453558 277.4266356 -329.51220703 281.56079102 C-327.93162684 289.08775796 -320.17394477 294.96908421 -314.75 299.9375 C-313.61957275 300.98671631 -313.61957275 300.98671631 -312.46630859 302.05712891 C-307.79108977 306.38655644 -303.08524743 310.6825346 -298.328125 314.921875 C-295.65950484 317.30393192 -293.01726431 319.71375334 -290.375 322.125 C-287.29690434 324.92757381 -284.2069813 327.70967875 -281.0625 330.4375 C-277.11254739 333.86836233 -273.268129 337.41130271 -269.41992188 340.95507812 C-266.6654424 343.48725408 -263.89266213 345.99027735 -261.0625 348.4375 C-256.87967989 352.06144644 -252.83728193 355.83255746 -248.77978516 359.59521484 C-245.26787256 362.84615512 -241.70998582 366.02984313 -238.08984375 369.16015625 C-235.35629441 371.56670156 -232.67885994 374.03303196 -230 376.5 C-226.69973124 379.53890177 -223.39050653 382.561561 -220 385.5 C-216.07130555 388.90486853 -212.24470275 392.41860558 -208.43286133 395.953125 C-205.59353357 398.57750921 -202.69409477 401.07137199 -199.6875 403.5 C-191.78681676 410.38017832 -186.35372849 420.72712469 -185.48071289 431.21142578 C-184.9196766 448.22792679 -188.67831346 464.80404561 -191.95233154 481.40201569 C-192.77357177 485.58801368 -193.57217431 489.77832836 -194.37304688 493.96826172 C-195.7976897 501.40600092 -197.23936249 508.84029438 -198.68985558 516.27303123 C-200.0500658 523.24669131 -201.39042978 530.22406451 -202.72265625 537.203125 C-203.11507102 539.25813813 -203.50748636 541.31315116 -203.89990234 543.36816406 C-204.08349304 544.32984497 -204.26708374 545.29152588 -204.45623779 546.28234863 C-204.99418182 549.09458401 -205.53490952 551.90626909 -206.07666016 554.71777344 C-208.47705857 567.18145628 -210.80314377 579.65699239 -213.03173828 592.15258789 C-214.04568785 597.82280549 -215.07953256 603.48168246 -216.25390625 609.12109375 C-220.60042376 627.96733145 -220.60042376 627.96733145 -216 646 C-213.67916437 648.84489529 -211.99682409 649.85549 -208.359375 650.3828125 C-195.92112287 650.86120681 -186.46268027 644.79249173 -176 638.6875 C-174.76688542 637.97479088 -173.53339816 637.26272621 -172.29956055 636.55126953 C-169.14011102 634.72761132 -165.98494405 632.89668604 -162.83099365 631.0635376 C-157.82988635 628.15863094 -152.82057201 625.26787566 -147.8125 622.375 C-146.74789551 621.75915039 -145.68329102 621.14330078 -144.58642578 620.50878906 C-137.21769239 616.25428271 -129.80814234 612.0782765 -122.375 607.9375 C-112.2093909 602.27237351 -102.14219055 596.45351221 -92.1015625 590.5703125 C-82.49682008 584.94294643 -72.85210215 579.3855852 -63.19726562 573.84472656 C-60.02330353 572.01344544 -56.86250189 570.16099431 -53.703125 568.3046875 C-37.30643753 558.73469779 -23.59122126 551.99477969 -4.0625 556 C10.00439844 560.05067756 22.73694529 569.37794832 35.1484375 576.87890625 C42.14864794 581.10219868 49.19295141 585.24756511 56.25 589.375 C57.15492188 589.90453278 57.15492188 589.90453278 58.078125 590.44476318 C61.15216179 592.24350392 64.22674067 594.04131467 67.30175781 595.83837891 C72.80507903 599.05466923 78.30612337 602.27484485 83.80606079 605.49691772 C85.01902537 606.20750417 86.23205846 606.91797368 87.44515991 607.62832642 C95.05097821 612.08269027 102.64038065 616.56311616 110.21459961 621.07104492 C120.18672511 627.0028343 130.17922689 632.89897437 140.23190308 638.69332886 C141.43106071 639.38551579 142.62896775 640.07987487 143.82546997 640.77664185 C157.52369435 649.16859457 157.52369435 649.16859457 173 651 C177.69994029 649.28271412 180.20959499 647.13393334 183 643 C186.46835312 632.59494065 183.13198054 620.2121057 181.25 609.6875 C180.97321737 608.09409765 180.69751239 606.50050775 180.42285156 604.90673828 C179.87649877 601.7424752 179.32509305 598.57916254 178.76953125 595.41650391 C177.55533629 588.48185623 176.42953063 581.53257792 175.29394531 574.5847168 C174.61887788 570.50890234 173.90325984 566.45009102 173.07543945 562.40234375 C171.95109093 556.81537283 170.93440999 551.21180419 169.93359375 545.6015625 C169.64113014 543.96900513 169.64113014 543.96900513 169.34275818 542.3034668 C167.57222236 532.4087643 165.81810124 522.51113475 164.0657959 512.6131897 C162.72616841 505.05554678 161.36756671 497.50168762 159.9901886 489.95083618 C159.14208159 485.2876306 158.30671179 480.6221979 157.47390747 475.95623779 C157.08004607 473.76550542 156.68084336 471.57572542 156.27584839 469.38702393 C149.77527581 434.20188757 149.77527581 434.20188757 156 421 C156.38285156 420.18144531 156.76570313 419.36289062 157.16015625 418.51953125 C162.22489855 409.37598314 170.24341894 402.78843694 177.91992188 395.87451172 C179.76572914 394.21111874 181.59772748 392.53471963 183.421875 390.84765625 C188.69314292 385.97448757 194.02805105 381.17306495 199.37109375 376.37890625 C202.43404593 373.60723036 205.46856037 370.80604069 208.5 368 C213.1208289 363.7227471 217.7750563 359.48690078 222.46484375 355.28515625 C225.36913208 352.66726923 228.24774381 350.02250647 231.125 347.375 C234.31867319 344.43698045 237.52395396 341.51950169 240.8125 338.6875 C245.50039834 334.62858592 249.9887823 330.35512404 254.51098633 326.11401367 C258.20629662 322.65464288 261.94256182 319.26867492 265.78125 315.96875 C269.75924741 312.43897765 273.61357338 308.77404278 277.48754883 305.13085938 C280.8229026 302.00178583 284.18543235 298.94357656 287.6875 296 C292.83154314 291.57164982 295.99494144 286.65730847 296.5625 279.75 C296.4736464 275.85313481 295.67493879 273.90984033 292.9375 271.125 C285.04925087 265.12216719 273.6291342 264.99573228 264.08764648 263.90673828 C256.70753335 263.03666541 249.39200538 261.77773297 242.0625 260.5625 C230.92860356 258.71786869 219.79971491 257.13670172 208.57836914 255.90063477 C207.61922607 255.79420654 206.66008301 255.68777832 205.671875 255.578125 C204.42035645 255.44519043 204.42035645 255.44519043 203.14355469 255.30957031 C201 255 201 255 198 254 C195.16809786 253.67800583 192.34110579 253.39029015 189.50390625 253.125 C179.57683544 252.13792875 169.7756677 250.63314189 159.9375 249 C149.68431878 247.30179393 139.46257109 245.7567879 129.12535095 244.66491699 C123.88086328 244.10985564 118.69171978 243.42130338 113.5 242.5 C112.75500244 242.37109375 112.01000488 242.2421875 111.24243164 242.109375 C109.16040429 241.74605907 107.08008712 241.37423494 105 241 C103.99839844 240.8246875 102.99679687 240.649375 101.96484375 240.46875 C90.51885617 238.34584659 81.59789595 234.83817891 73.9375 225.625 C71.27502777 221.7331295 69.27892793 217.57707494 67.296875 213.3125 C66.94815842 212.56626373 66.59944183 211.82002747 66.24015808 211.05117798 C62.44908619 202.89000348 58.8650358 194.64212114 55.3125 186.375 C54.61056856 184.74696555 53.90858177 183.11895495 53.20654297 181.4909668 C48.69134025 171.00567563 44.24788551 160.49183923 39.85037231 149.95672607 C29.38645213 124.89400535 18.61784467 99.95790228 7.79455566 75.04858398 C7.0665763 73.37268221 6.33942021 71.69642253 5.61315918 70.01977539 C-0.49491403 52.94685791 -0.49491403 52.94685791 -12 40 C-18.66367705 38.15685528 -21.53655481 43.05355318 -25 48 Z " fill="#1B150F" transform="translate(644,255)"/>
<path d="M0 0 C0.79575439 0.09506836 1.59150879 0.19013672 2.41137695 0.28808594 C10.50469998 1.32681894 17.71513889 2.70356342 23.87109375 8.4453125 C25.85039323 11.2940239 25.84382127 13.70754145 25.5390625 17.09375 C23.75019213 26.40937684 15.39308843 33.3633419 8.44140625 39.25390625 C5.52240952 41.76926431 2.69985089 44.37988449 -0.125 47 C-1.25128382 48.04298847 -2.37758603 49.08595708 -3.50390625 50.12890625 C-4.06480957 50.64855957 -4.62571289 51.16821289 -5.20361328 51.70361328 C-11.36811365 57.40708178 -17.56007875 63.08048997 -23.8125 68.6875 C-27.74326966 72.21316619 -31.62714382 75.78610521 -35.5 79.375 C-39.52148479 83.10060892 -43.58012048 86.76497763 -47.7265625 90.3515625 C-51.19003999 93.41201715 -54.56723516 96.56545822 -57.95703125 99.70703125 C-61.24019885 102.74756291 -64.54176346 105.7642018 -67.875 108.75 C-71.74162515 112.21489786 -75.56515859 115.72302384 -79.375 119.25 C-83.18484141 122.77697616 -87.00837485 126.28510214 -90.875 129.75 C-91.66519531 130.46542969 -92.45539063 131.18085937 -93.26953125 131.91796875 C-95.20821307 133.65319071 -97.1623593 135.35724506 -99.13671875 137.05078125 C-108.92293643 145.57511766 -116.71616065 154.82137151 -118.08159447 168.28746223 C-118.17517368 170.39334769 -118.19769187 172.4841496 -118.18041992 174.59204102 C-118.17608287 175.36916978 -118.17174582 176.14629854 -118.16727734 176.94697666 C-118.00456998 185.70983055 -116.55792464 194.17527881 -114.98828125 202.77734375 C-114.68507776 204.50274784 -114.38320424 206.2283861 -114.08256531 207.95423889 C-113.29411539 212.4588733 -112.48738133 216.96003713 -111.67657471 221.46069336 C-110.86970095 225.95936953 -110.08137749 230.46128999 -109.29101562 234.96289062 C-103.83585157 266.2204862 -103.83585157 266.2204862 -97.84082031 297.37670898 C-96.8766762 302.16273851 -96.04652593 306.96419058 -95.25390625 311.78125 C-95.10847885 312.65664429 -94.96305145 313.53203857 -94.81321716 314.43395996 C-94.35310045 317.2057199 -93.89524005 319.97784669 -93.4375 322.75 C-92.98451912 325.48294419 -92.53108084 328.2158122 -92.07757568 330.94866943 C-91.77931995 332.74855008 -91.4818301 334.54855782 -91.18511963 336.34869385 C-90.46992367 340.68520799 -89.74547126 345.01966867 -88.99707031 349.35058594 C-88.85857162 350.15911011 -88.72007294 350.96763428 -88.57737732 351.80065918 C-88.31948858 353.3032905 -88.05841871 354.80538127 -87.79335022 356.3067627 C-86.50349129 363.85926971 -85.60907507 371.45222521 -88.0625 378.8125 C-90.82383523 382.52601979 -93.4744455 384.7831485 -97.875 386.25 C-109.62412625 387.28062511 -119.18140961 380.60022331 -129 374.875 C-130.24131493 374.15759737 -131.48293838 373.44072833 -132.72485352 372.72436523 C-135.85843185 370.91446865 -138.98724124 369.09651796 -142.11419678 367.27520752 C-144.7476917 365.74188525 -147.38389145 364.21322545 -150.01953125 362.68359375 C-154.92398082 359.83242769 -159.82130839 356.96926137 -164.71582031 354.10107422 C-167.49987019 352.46980172 -170.28486366 350.84015301 -173.07025146 349.21116638 C-188.99050593 339.89956685 -204.87294513 330.52604599 -220.73388672 321.11376953 C-228.24890942 316.65475482 -235.76810673 312.20310973 -243.29931641 307.77148438 C-245.89663279 306.23722128 -248.48563911 304.68957324 -251.07421875 303.140625 C-262.71271685 296.22247161 -273.52266341 290.23932843 -287.375 289.9375 C-288.4784375 289.90011719 -289.581875 289.86273437 -290.71875 289.82421875 C-301.64951047 290.43608312 -311.41833892 295.76664232 -320.6875 301.125 C-321.86525978 301.79392791 -323.04357608 302.46187682 -324.22241211 303.12890625 C-327.78418523 305.15053885 -331.33102994 307.19735975 -334.875 309.25 C-335.91720703 309.85231445 -336.95941406 310.45462891 -338.03320312 311.07519531 C-342.97934272 313.93934031 -347.91492845 316.8210096 -352.84375 319.71484375 C-368.21305362 328.73650412 -383.67526764 337.59639493 -399.20263672 346.34277344 C-406.34777536 350.37286192 -413.46024954 354.45736291 -420.5625 358.5625 C-421.62839355 359.17770508 -422.69428711 359.79291016 -423.79248047 360.42675781 C-428.4053323 363.08920921 -433.01800435 365.75188013 -437.62451172 368.42529297 C-440.79846466 370.26708793 -443.97587905 372.10278664 -447.15542603 373.93490601 C-448.36907834 374.63569319 -449.58149855 375.33861928 -450.79257202 376.04385376 C-460.94014112 381.9509814 -469.75130008 387.07196052 -481.875 385.25 C-485.30669395 383.64634302 -487.27539773 381.43053181 -489.00390625 378.02734375 C-492.51832927 366.82216542 -489.19957278 353.43008812 -486.875 342.25 C-486.58109375 342.85714844 -486.2871875 343.46429687 -485.984375 344.08984375 C-483.34287057 349.23333653 -480.39148378 352.37833586 -474.875 354.25 C-464.91304958 356.0924924 -457.54717105 352.24761371 -449.13330078 347.51660156 C-446.74767373 346.17858717 -444.34335532 344.87993876 -441.93359375 343.5859375 C-433.79386018 339.19316446 -425.75238288 334.6607332 -417.84790039 329.85766602 C-412.18819084 326.41984481 -406.4734279 323.08048508 -400.75 319.75 C-398.67314666 318.54041681 -396.59632466 317.33077982 -394.51953125 316.12109375 C-393.4413916 315.49315918 -392.36325195 314.86522461 -391.25244141 314.21826172 C-385.31066382 310.75558925 -379.37233605 307.28705636 -373.4375 303.8125 C-372.827995 303.45572174 -372.21848999 303.09894348 -371.59051514 302.73135376 C-362.98383089 297.69047463 -354.41736106 292.58686718 -345.875 287.4375 C-338.09457 282.75689211 -330.2976096 278.108301 -322.4375 273.5625 C-321.61572266 273.08127686 -320.79394531 272.60005371 -319.94726562 272.10424805 C-309.5810708 266.15686699 -300.30793057 263.07328132 -288.375 262.875 C-287.55257812 262.83761719 -286.73015625 262.80023437 -285.8828125 262.76171875 C-273.23567169 262.58660449 -262.30376635 269.34649923 -251.625 275.4375 C-250.42732997 276.11264276 -249.2293271 276.78719539 -248.03100586 277.46118164 C-241.15411803 281.33908382 -234.31897196 285.28676112 -227.53198242 289.31982422 C-221.16121323 293.10263848 -214.74337333 296.80250266 -208.31491089 300.4861145 C-207.08313593 301.19233428 -205.85193474 301.89955597 -204.62136841 302.60787964 C-184.61879059 314.87664603 -184.61879059 314.87664603 -161.875 317.25 C-153.9157665 315.06339739 -146.56137739 312.34358763 -141.875 305.25 C-135.07001118 291.67565057 -135.12006218 279.7903991 -137.10546875 265.02734375 C-137.30232521 263.5432048 -137.30232521 263.5432048 -137.50315857 262.02908325 C-139.24247779 249.19087507 -141.34908871 236.41004858 -143.4375 223.625 C-144.03949562 219.91895687 -144.64049205 216.212753 -145.24119568 212.50650024 C-145.61087207 210.22783763 -145.98145249 207.9493214 -146.35316467 205.67098999 C-146.86452493 202.53130363 -147.37055671 199.39080453 -147.875 196.25 C-148.06109833 195.10621887 -148.24719666 193.96243774 -148.43893433 192.78399658 C-148.62013824 191.64694275 -148.80134216 190.50988892 -148.98803711 189.33837891 C-149.15218613 188.31757233 -149.31633514 187.29676575 -149.48545837 186.24502563 C-151.40060743 171.52023085 -148.59566606 158.87848983 -140.875 146.25 C-138.10245093 142.66084477 -135.09073751 139.44268562 -131.875 136.25 C-131.30007813 135.63898438 -130.72515625 135.02796875 -130.1328125 134.3984375 C-126.0632036 130.13411047 -121.55355808 126.52453365 -116.96484375 122.8359375 C-113.46108919 119.95716473 -110.17390432 116.85897149 -106.875 113.75 C-102.85836824 109.96671077 -98.82121885 106.31380779 -94.5 102.875 C-88.98215436 98.46397885 -83.91400486 93.63792964 -78.79760742 88.77587891 C-74.08959335 84.32489057 -69.25225691 80.19310506 -64.18359375 76.15625 C-62.11032745 74.44431437 -60.24089395 72.68174903 -58.375 70.75 C-55.742989 68.02531255 -52.96664129 65.66888625 -50 63.3125 C-42.56406047 57.3227225 -35.70731689 50.72181758 -28.82226562 44.11376953 C-27.12604917 42.49028453 -25.41747064 40.88160918 -23.703125 39.27734375 C-18.87547959 34.65680148 -15.22490825 30.54830061 -12.875 24.25 C-12.4625 23.239375 -12.05 22.22875 -11.625 21.1875 C-9.52528804 12.96362816 -12.18982928 7.52821217 -15.875 0.25 C-10.37275551 -0.77163691 -5.54234992 -0.6708084 0 0 Z " fill="#F4B509" transform="translate(914.875,519.75)"/>
<path d="M0 0 C4.59442036 0.79518814 7.01300145 3.34465529 10.25 6.5625 C9.61918977 11.27072126 7.64372849 15.16965932 5.5625 19.375 C-7.03623903 45.46982414 -17.94164063 72.39112606 -29.17852783 99.0897522 C-33.51941469 109.39878399 -37.89711025 119.69208574 -42.28109741 129.98284912 C-46.47760808 139.83405897 -50.64978552 149.69490299 -54.7890625 159.5703125 C-56.06874139 162.61856841 -57.34869183 165.66671019 -58.62866211 168.71484375 C-59.44600767 170.66430497 -60.2616599 172.61447719 -61.07543945 174.56542969 C-77.72121972 214.47079303 -77.72121972 214.47079303 -93.30078125 221.07421875 C-103.2985897 224.73419224 -114.23769431 225.38629797 -124.75 226.5625 C-125.6217688 226.66111328 -126.4935376 226.75972656 -127.39172363 226.86132812 C-138.24883245 228.08864119 -149.11030503 229.27073565 -159.9765625 230.4140625 C-173.06828728 231.7936108 -186.13315275 233.34302457 -199.19189453 235.00732422 C-211.31008019 236.54980553 -223.43156319 238.00905432 -235.58276367 239.27050781 C-244.11297148 240.16024508 -252.63486128 241.1117216 -261.15625 242.08203125 C-264.83108698 242.4983215 -268.50596497 242.91424834 -272.18084717 243.33013916 C-274.62674457 243.60812889 -277.07242786 243.88800965 -279.5178833 244.16986084 C-282.99313805 244.57012369 -286.46912419 244.96340782 -289.9453125 245.35546875 C-291.50638733 245.53804985 -291.50638733 245.53804985 -293.09899902 245.72431946 C-306.40327445 247.20848355 -306.40327445 247.20848355 -311.75 246.5625 C-314.06174972 244.25075028 -314.16772917 243.54406186 -314.375 240.375 C-314.24821053 236.43818685 -313.40957209 234.47802203 -310.625 231.6875 C-300.73209265 224.27209104 -285.40733935 224.72865964 -273.53515625 223.37109375 C-266.85913143 222.59499028 -260.21238962 221.65989405 -253.5625 220.6875 C-243.05016145 219.16259339 -232.53112541 217.70090058 -222 216.3125 C-220.86837936 216.1631752 -220.86837936 216.1631752 -219.71389771 216.01083374 C-208.84621433 214.5812136 -197.97137609 213.21117698 -187.09311676 211.86461258 C-184.98820742 211.60400874 -182.88334985 211.34299014 -180.77850342 211.08187866 C-169.11667665 209.63580143 -169.11667665 209.63580143 -163.89416504 208.99768066 C-150.05440804 207.30633114 -136.22021457 205.57125128 -122.421875 203.56640625 C-121.38589172 203.42436264 -120.34990845 203.28231903 -119.28253174 203.13597107 C-108.34788983 201.49132112 -98.04494273 198.01604984 -90.83984375 189.234375 C-85.1114144 181.30457471 -81.48015082 173.14490036 -78.09375 164.00390625 C-77.09140985 161.43686651 -76.04629495 158.93679995 -74.92163086 156.42431641 C-74.56668549 155.62943314 -74.21174011 154.83454987 -73.84603882 154.01557922 C-73.48434601 153.20606308 -73.1226532 152.39654694 -72.75 151.5625 C-72.08537235 150.06514683 -71.42138637 148.56750868 -70.75805664 147.06958008 C-70.41941086 146.30500992 -70.08076508 145.54043976 -69.7318573 144.75270081 C-60.83904656 124.66635655 -51.98348788 104.56658632 -43.27630615 84.39900208 C-41.06167439 79.27395757 -38.83124361 74.15587033 -36.59765625 69.0390625 C-36.05695244 67.80005943 -36.05695244 67.80005943 -35.50532532 66.536026 C-33.67209367 62.335974 -31.83719424 58.1366594 -30.00024414 53.93823242 C-26.68717244 46.35805284 -23.39903427 38.77040952 -20.2109375 31.13671875 C-19.66878571 29.84517935 -19.12655189 28.55367439 -18.58422852 27.26220703 C-17.60629145 24.92476014 -16.63726011 22.58355637 -15.67944336 20.23779297 C-7.87182012 1.61014503 -7.87182012 1.61014503 0 0 Z " fill="#FBD33C" transform="translate(628.75,294.4375)"/>
<path d="M0 0 C0 0.99 0 1.98 0 3 C-0.65484375 3.05534912 -1.3096875 3.11069824 -1.984375 3.16772461 C-4.98972466 3.42268056 -7.99486102 3.68007315 -11 3.9375 C-12.02996094 4.02451172 -13.05992187 4.11152344 -14.12109375 4.20117188 C-17.08192955 4.45576604 -20.04111089 4.72376157 -23 5 C-23.81339844 5.07234863 -24.62679688 5.14469727 -25.46484375 5.21923828 C-29.68299611 5.55663086 -29.68299611 5.55663086 -33 8 C-36.125 7.6875 -36.125 7.6875 -40 7 C-41.47805871 6.80395731 -42.95725484 6.61628627 -44.4375 6.4375 C-45.613125 6.293125 -46.78875 6.14875 -48 6 C-48 5.67 -48 5.34 -48 5 C-42.1289617 4.28336891 -36.2573804 3.57142865 -30.38525391 2.86376953 C-28.38900513 2.6225359 -26.3929089 2.38003642 -24.39697266 2.13623047 C-21.52285605 1.78537916 -18.64821598 1.43913085 -15.7734375 1.09375 C-14.88570648 0.9843811 -13.99797546 0.87501221 -13.08334351 0.7623291 C-8.69217518 0.23928908 -4.43254233 -0.12682525 0 0 Z " fill="#E1D03D" transform="translate(484,502)"/>
<path d="M0 0 C1.64630328 0.14042877 3.29204179 0.28749329 4.9375 0.4375 C6.31228516 0.55931641 6.31228516 0.55931641 7.71484375 0.68359375 C10 1 10 1 11 2 C12.34015221 2.15582303 13.68758903 2.25044142 15.03515625 2.31640625 C16.24848633 2.37924805 16.24848633 2.37924805 17.48632812 2.44335938 C18.33646484 2.48267578 19.18660156 2.52199219 20.0625 2.5625 C20.91650391 2.60568359 21.77050781 2.64886719 22.65039062 2.69335938 C24.76672037 2.79976702 26.88333813 2.90041731 29 3 C26.13854255 5.86145745 24.12067266 5.30024334 20.125 5.3125 C13.09438543 5.29886322 6.72691759 4.10451053 0 2 C0 1.34 0 0.68 0 0 Z " fill="#1D1B17" transform="translate(417,941)"/>
<path d="M0 0 C0.33 0 0.66 0 1 0 C1.02505615 0.64960693 1.0501123 1.29921387 1.07592773 1.96850586 C1.19313851 4.95831088 1.31528919 7.94789535 1.4375 10.9375 C1.47681641 11.95908203 1.51613281 12.98066406 1.55664062 14.03320312 C1.80720001 20.06590209 2.25643055 26.007705 3 32 C0 30 0 30 -0.6796875 27.5078125 C-1.09562465 22.95279343 -1.14496305 18.44653779 -1.125 13.875 C-1.12886719 12.98167969 -1.13273438 12.08835937 -1.13671875 11.16796875 C-1.13542969 10.30558594 -1.13414062 9.44320312 -1.1328125 8.5546875 C-1.13112061 7.38655518 -1.13112061 7.38655518 -1.12939453 6.19482422 C-1.00067995 4.01153353 -0.60139679 2.09802077 0 0 Z " fill="#DDB006" transform="translate(795,681)"/>
<path d="M0 0 C9.52149445 0.52296087 18.67490566 2.1184137 28 4 C28 4.33 28 4.66 28 5 C19.48627215 5.31274919 11.3969326 4.37292913 3 3 C3 2.34 3 1.68 3 1 C2.01 0.67 1.02 0.34 0 0 Z " fill="#D7B70F" transform="translate(745,496)"/>
<path d="M0 0 C0.66 0.33 1.32 0.66 2 1 C0.58791833 2.60820412 -0.82986036 4.21140708 -2.25 5.8125 C-3.03890625 6.70582031 -3.8278125 7.59914063 -4.640625 8.51953125 C-7.83762197 11.8806125 -10.37626705 14.1743334 -15 15 C-10 10 -5 5 0 0 Z " fill="#E7DECD" transform="translate(875,655)"/>
<path d="M0 0 C1.21097999 3.63293998 0.67110261 4.53992407 -0.75 8 C-1.09546875 8.86625 -1.4409375 9.7325 -1.796875 10.625 C-2.95948674 12.92002578 -4.07731249 14.32041091 -6 16 C-7.31622874 12.05131377 -6.30180315 10.64928624 -4.6875 6.875 C-4.23761719 5.79992187 -3.78773438 4.72484375 -3.32421875 3.6171875 C-2 1 -2 1 0 0 Z " fill="#E8CC3A" transform="translate(582,390)"/>
<path d="M0 0 C2 1 2 1 3.125 3 C5.1960781 10.1008392 3.84612128 17.76264122 3 25 C2.67 25 2.34 25 2 25 C1.90912109 23.17275391 1.90912109 23.17275391 1.81640625 21.30859375 C1.73193597 19.68488723 1.64729128 18.06118978 1.5625 16.4375 C1.50352539 15.23770508 1.50352539 15.23770508 1.44335938 14.01367188 C1.19251844 9.28628494 0.74678186 4.67523099 0 0 Z " fill="#C0A411" transform="translate(457,675)"/>
<path d="M0 0 C-0.63451777 3.68020305 -0.63451777 3.68020305 -2.5 5.3125 C-4.79784024 7.89757027 -4.6837707 10.64796938 -5 14 C-5.99 14.33 -6.98 14.66 -8 15 C-8.91267606 7.3943662 -8.91267606 7.3943662 -6.734375 4.06640625 C-2.71672662 0 -2.71672662 0 0 0 Z " fill="#DCC53D" transform="translate(323,524)"/>
<path d="M0 0 C0.66 0 1.32 0 2 0 C1.45925627 3.78520613 -0.07572746 5.59177555 -3 8 C-3.99 8 -4.98 8 -6 8 C-6.33 8.99 -6.66 9.98 -7 11 C-8.98 11.33 -10.96 11.66 -13 12 C-10.47305049 9.97844039 -7.94922799 7.96131656 -5.375 6 C-2.95194143 4.11205278 -2.95194143 4.11205278 -1.3125 1.75 C-0.879375 1.1725 -0.44625 0.595 0 0 Z " fill="#E7D244" transform="translate(539,482)"/>
<path d="M0 0 C2.125 0.375 2.125 0.375 4 1 C3.48050781 1.44730469 2.96101562 1.89460937 2.42578125 2.35546875 C-1.52679654 5.78201031 -5.35827082 9.24446679 -9 13 C-9 9.26130751 -8.09514308 8.63449295 -5.625 5.9375 C-4.99851562 5.24527344 -4.37203125 4.55304687 -3.7265625 3.83984375 C-2.50602933 2.53923035 -1.26120903 1.26120903 0 0 Z " fill="#231D0A" transform="translate(813,658)"/>
<path d="M0 0 C0 0.99 0 1.98 0 3 C-0.33 3.33 -0.66 3.66 -1 4 C-3.33954855 3.71352467 -5.67212073 3.36950465 -8 3 C-9.47843617 2.80682454 -10.95760903 2.6191948 -12.4375 2.4375 C-13.613125 2.293125 -14.78875 2.14875 -16 2 C-16 1.67 -16 1.34 -16 1 C-10.65097076 0.40801257 -5.39115154 -0.14187241 0 0 Z " fill="#DBC742" transform="translate(452,506)"/>
<path d="M0 0 C1.10844919 3.32534757 0.84454356 5.62182575 0 9 C-0.66 9 -1.32 9 -2 9 C-2 10.98 -2 12.96 -2 15 C-3.32 15.33 -4.64 15.66 -6 16 C-4.25192871 10.53262809 -2.34205919 5.24175152 0 0 Z " fill="#E7D03C" transform="translate(573,407)"/>
<path d="M0 0 C0.33 0 0.66 0 1 0 C1.20413361 5.73842251 1.27141454 10.60539047 -1 16 C-1.66 16 -2.32 16 -3 16 C-2.57910004 10.39538469 -2.08386889 5.27913453 0 0 Z " fill="#E7C60C" transform="translate(448,761)"/>
<path d="M0 0 C0.66 0.66 1.32 1.32 2 2 C0.77023437 2.09087891 0.77023437 2.09087891 -0.484375 2.18359375 C-2.10085938 2.30927734 -2.10085938 2.30927734 -3.75 2.4375 C-5.35101562 2.55931641 -5.35101562 2.55931641 -6.984375 2.68359375 C-9.90466578 2.90760191 -9.90466578 2.90760191 -12.28125 3.625 C-13.13203125 3.810625 -13.13203125 3.810625 -14 4 C-15.75 2.5625 -15.75 2.5625 -17 1 C-11.4461856 -0.20082474 -5.65928876 -0.54558503 0 0 Z " fill="#302D25" transform="translate(635,253)"/>
<path d="M0 0 C1.66171502 2.49257253 2.9387679 4.79516513 4.1875 7.5 C4.55230469 8.2734375 4.91710937 9.046875 5.29296875 9.84375 C6 12 6 12 5 15 C2.2793344 13.6396672 1.72045866 11.71347505 0.59765625 8.98828125 C-0.30882659 5.97259651 -0.1907853 3.11615984 0 0 Z " fill="#E9C10C" transform="translate(689,419)"/>
<path d="M0 0 C0.33 0 0.66 0 1 0 C1.28571429 7.42857143 1.28571429 7.42857143 -1 11 C-1.66 11 -2.32 11 -3 11 C-3.33 12.32 -3.66 13.64 -4 15 C-4.66 15 -5.32 15 -6 15 C-4.40109514 9.80355921 -2.25861997 4.93387858 0 0 Z " fill="#24221E" transform="translate(570,315)"/>
<path d="M0 0 C0.86625 0.12375 1.7325 0.2475 2.625 0.375 C0.645 1.365 0.645 1.365 -1.375 2.375 C-1.375 3.035 -1.375 3.695 -1.375 4.375 C-2.90625 5.6640625 -2.90625 5.6640625 -4.875 7 C-5.5246875 7.44601562 -6.174375 7.89203125 -6.84375 8.3515625 C-7.3490625 8.68929688 -7.854375 9.02703125 -8.375 9.375 C-8.705 8.385 -9.035 7.395 -9.375 6.375 C-4.20576923 0.46730769 -4.20576923 0.46730769 0 0 Z " fill="#DDC534" transform="translate(629.375,294.625)"/>
<path d="M0 0 C3.3 0.33 6.6 0.66 10 1 C10.33 1.99 10.66 2.98 11 4 C9.54119891 3.85892253 8.08296449 3.71197585 6.625 3.5625 C5.40683594 3.44068359 5.40683594 3.44068359 4.1640625 3.31640625 C2 3 2 3 0 2 C0 1.34 0 0.68 0 0 Z " fill="#2C2721" transform="translate(417,941)"/>
<path d="M0 0 C0.99 0 1.98 0 3 0 C2.67 7.59 2.34 15.18 2 23 C1.67 23 1.34 23 1 23 C0.67 15.41 0.34 7.82 0 0 Z " fill="#28221C" transform="translate(386,875)"/>
<path d="M0 0 C0 0.33 0 0.66 0 1 C-0.969375 1.12375 -1.93875 1.2475 -2.9375 1.375 C-4.4534375 1.684375 -4.4534375 1.684375 -6 2 C-6.33 2.66 -6.66 3.32 -7 4 C-7.66 4 -8.32 4 -9 4 C-9 3.34 -9 2.68 -9 2 C-10.65 2 -12.3 2 -14 2 C-14.33 2.66 -14.66 3.32 -15 4 C-17.31 3.67 -19.62 3.34 -22 3 C-22 2.67 -22 2.34 -22 2 C-7.40318907 -0.29612756 -7.40318907 -0.29612756 0 0 Z " fill="#3D3B33" transform="translate(445,467)"/>
<path d="M0 0 C0.33 0 0.66 0 1 0 C1.31563182 5.26053037 0.66590937 8.44573816 -2 13 C-2.99 12.67 -3.98 12.34 -5 12 C-3.35 8.04 -1.7 4.08 0 0 Z " fill="#E7CC38" transform="translate(613,315)"/>
<path d="M0 0 C0.99 0 1.98 0 3 0 C1.125 5.75 1.125 5.75 0 8 C-0.66 8 -1.32 8 -2 8 C-2 8.66 -2 9.32 -2 10 C-2.66 10 -3.32 10 -4 10 C-2.8905928 6.51329166 -1.73662334 3.22515763 0 0 Z " fill="#282520" transform="translate(563,331)"/>
<path d="M0 0 C3.48331435 3.01887244 4.79157144 5.56909529 6 10 C5.34 10.66 4.68 11.32 4 12 C3.3291288 10.3767313 2.66342971 8.75132422 2 7.125 C1.62875 6.22007812 1.2575 5.31515625 0.875 4.3828125 C0 2 0 2 0 0 Z " fill="#27221C" transform="translate(670,279)"/>
<path d="M0 0 C2.25170312 2.25170312 2.51474 3.32987578 3.1875 6.375 C3.36667969 7.14585937 3.54585937 7.91671875 3.73046875 8.7109375 C4.01304909 11.11082272 3.73503321 12.71670535 3 15 C1.094753 9.89665983 -0.42589023 5.53657294 0 0 Z " fill="#E3B407" transform="translate(797,717)"/>
<path d="M0 0 C6.93 0.495 6.93 0.495 14 1 C14 1.33 14 1.66 14 2 C12.23103898 2.36340286 10.45973374 2.71540883 8.6875 3.0625 C7.70136719 3.25972656 6.71523438 3.45695313 5.69921875 3.66015625 C3 4 3 4 0 3 C0 2.01 0 1.02 0 0 Z " fill="#E1BC10" transform="translate(849,511)"/>
<path d="M0 0 C3.45201639 1.47721422 5.64961936 3.43794001 8.25 6.125 C8.95640625 6.84945312 9.6628125 7.57390625 10.390625 8.3203125 C11.18726563 9.15175781 11.18726563 9.15175781 12 10 C11.67 10.66 11.34 11.32 11 12 C10.45730469 11.44570313 9.91460937 10.89140625 9.35546875 10.3203125 C8.64003906 9.59585938 7.92460937 8.87140625 7.1875 8.125 C6.12595703 7.04605469 6.12595703 7.04605469 5.04296875 5.9453125 C2.95600806 3.84641063 2.95600806 3.84641063 0 2 C0 1.34 0 0.68 0 0 Z " fill="#E4CB10" transform="translate(326,550)"/>
<path d="M0 0 C0.99 0.33 1.98 0.66 3 1 C1.125 6.75 1.125 6.75 0 9 C-0.99 9 -1.98 9 -3 9 C-2.01 6.03 -1.02 3.06 0 0 Z " fill="#2D2824" transform="translate(527,412)"/>
<path d="M0 0 C1.875 0.1875 1.875 0.1875 4 1 C5.5225431 3.68257593 6.12235992 5.24544717 5.625 8.3125 C5.41875 8.869375 5.2125 9.42625 5 10 C2.57244264 7.57244264 1.42454809 5.10810492 0 2 C0 1.34 0 0.68 0 0 Z " fill="#E5DAC8" transform="translate(719,386)"/>
<path d="M0 0 C0.99 0 1.98 0 3 0 C4.625 2.75 4.625 2.75 6 6 C5.0859375 8.203125 5.0859375 8.203125 4 10 C3.32845067 8.71086513 2.66291141 7.41859796 2 6.125 C1.62875 5.40570313 1.2575 4.68640625 0.875 3.9453125 C0 2 0 2 0 0 Z " fill="#29231D" transform="translate(677,296)"/>
<path d="M0 0 C0.33 0.99 0.66 1.98 1 3 C-1.53790306 6.45436806 -3.43145646 8.62097097 -7 11 C-7.99 10.67 -8.98 10.34 -10 10 C-9.44570313 9.52949219 -8.89140625 9.05898438 -8.3203125 8.57421875 C-7.59585938 7.95160156 -6.87140625 7.32898438 -6.125 6.6875 C-5.40570312 6.07261719 -4.68640625 5.45773437 -3.9453125 4.82421875 C-1.80820669 2.9587676 -1.80820669 2.9587676 0 0 Z " fill="#E7E0D1" transform="translate(856,926)"/>
<path d="M0 0 C0 0.66 0 1.32 0 2 C-2.64846603 4.36214538 -4.61516396 5.87172132 -8 7 C-8.66 6.34 -9.32 5.68 -10 5 C-8.71186658 4.16121545 -7.41936744 3.32913217 -6.125 2.5 C-5.40570313 2.0359375 -4.68640625 1.571875 -3.9453125 1.09375 C-2 0 -2 0 0 0 Z " fill="#27200A" transform="translate(488,882)"/>
<path d="M0 0 C0.66 0 1.32 0 2 0 C1.7589852 6.14587738 1.7589852 6.14587738 -0.40234375 8.578125 C-1.88046971 9.78844931 -3.43647953 10.90220903 -5 12 C-3.41037341 7.96479403 -1.71767682 3.98188718 0 0 Z " fill="#E1D140" transform="translate(546,469)"/>
<path d="M0 0 C1.875 0.625 1.875 0.625 4 2 C5.25 5.125 5.25 5.125 6 8 C4.125 7.75 4.125 7.75 2 7 C0.27898465 4.41847698 0 3.15081975 0 0 Z " fill="#2F2922" transform="translate(738,436)"/>
<path d="M0 0 C0.33 1.32 0.66 2.64 1 4 C0.01 4.495 0.01 4.495 -1 5 C-1.65772428 8.02934491 -1.65772428 8.02934491 -2 11 C-2.99 11.33 -3.98 11.66 -5 12 C-4.54738642 10.56068883 -4.08767021 9.12361001 -3.625 7.6875 C-3.24214844 6.48673828 -3.24214844 6.48673828 -2.8515625 5.26171875 C-2 3 -2 3 0 0 Z " fill="#ECD543" transform="translate(602,342)"/>
<path d="M0 0 C2 3 2 3 1.625 6.1875 C1.41875 7.115625 1.2125 8.04375 1 9 C0.01 9 -0.98 9 -2 9 C-1.34 6.03 -0.68 3.06 0 0 Z " fill="#DFD3BF" transform="translate(978,546)"/>
<path d="M0 0 C1.485 0.99 1.485 0.99 3 2 C3 2.66 3 3.32 3 4 C3.99 4.33 4.98 4.66 6 5 C6.33 6.65 6.66 8.3 7 10 C4.06799526 7.14723863 1.35684596 4.34920216 -1 1 C-0.67 0.67 -0.34 0.34 0 0 Z " fill="#F1CA0D" transform="translate(444,655)"/>
<path d="M0 0 C0.66 0.99 1.32 1.98 2 3 C1.3125 6.125 1.3125 6.125 0 9 C-0.99 9.33 -1.98 9.66 -3 10 C-2.49287967 6.28111761 -1.88391785 3.26545761 0 0 Z " fill="#EDE2CD" transform="translate(276,511)"/>
<path d="M0 0 C1.13757948 4.55031791 0.4283779 6.63084406 -1 11 C-1.99 10.67 -2.98 10.34 -4 10 C-2.68 6.7 -1.36 3.4 0 0 Z " fill="#E3CD3A" transform="translate(596,354)"/>
<path d="M0 0 C1.99097846 2.98646769 2.94124926 5.59687262 4 9 C3.34 9.66 2.68 10.32 2 11 C-0.32590854 7.36576791 -0.16265833 4.22911669 0 0 Z " fill="#25201B" transform="translate(693,327)"/>
<path d="M0 0 C-3.96 1.98 -3.96 1.98 -8 4 C-8 3.34 -8 2.68 -8 2 C-9.65 2 -11.3 2 -13 2 C-13 1.67 -13 1.34 -13 1 C-11.58622218 0.63447197 -10.16879424 0.28304505 -8.75 -0.0625 C-7.96109375 -0.25972656 -7.1721875 -0.45695313 -6.359375 -0.66015625 C-4 -1 -4 -1 0 0 Z " fill="#C9C6B9" transform="translate(457,944)"/>
<path d="M0 0 C2.475 0.99 2.475 0.99 5 2 C5 2.66 5 3.32 5 4 C7.475 4.99 7.475 4.99 10 6 C9.67 6.66 9.34 7.32 9 8 C7.68121422 7.23997083 6.3701316 6.46656347 5.0625 5.6875 C4.33160156 5.25824219 3.60070312 4.82898438 2.84765625 4.38671875 C1 3 1 3 0 0 Z " fill="#E5BA05" transform="translate(733,861)"/>
<path d="M0 0 C0.33 1.32 0.66 2.64 1 4 C-0.98 5.32 -2.96 6.64 -5 8 C-5 5 -5 5 -2.5 2.3125 C-1.675 1.549375 -0.85 0.78625 0 0 Z " fill="#2A220A" transform="translate(927,554)"/>
<path d="M0 0 C0.66 0.33 1.32 0.66 2 1 C0.875 2.9375 0.875 2.9375 -1 5 C-4.1875 5.75 -4.1875 5.75 -7 6 C-4.74259377 3.66475218 -2.7194239 1.81294927 0 0 Z " fill="#2D2B26" transform="translate(298,491)"/>
<path d="M0 0 C0 0.33 0 0.66 0 1 C-1.65 1 -3.3 1 -5 1 C-5 1.66 -5 2.32 -5 3 C-7.64 2.67 -10.28 2.34 -13 2 C-13 1.67 -13 1.34 -13 1 C-8.59085217 -0.10228696 -4.51617599 -0.07654536 0 0 Z " fill="#43423B" transform="translate(392,474)"/>
<path d="M0 0 C0 0.33 0 0.66 0 1 C-5.30723432 2.42705634 -9.53891111 3.4002792 -15 2 C-15 1.67 -15 1.34 -15 1 C-9.91913204 0.15318867 -5.15171623 -0.09038099 0 0 Z " fill="#494740" transform="translate(415,471)"/>
<path d="M0 0 C0.99 0.33 1.98 0.66 3 1 C2.34 2.98 1.68 4.96 1 7 C0.01 7 -0.98 7 -2 7 C-1.34 4.69 -0.68 2.38 0 0 Z " fill="#292521" transform="translate(518,433)"/>
<path d="M0 0 C0.99 0.33 1.98 0.66 3 1 C2.34 2.98 1.68 4.96 1 7 C0.01 7 -0.98 7 -2 7 C-1.34 4.69 -0.68 2.38 0 0 Z " fill="#332F29" transform="translate(539,384)"/>
<path d="M0 0 C0.33 0 0.66 0 1 0 C1.125 6.75 1.125 6.75 0 9 C-0.99 9 -1.98 9 -3 9 C-2.01 6.03 -1.02 3.06 0 0 Z " fill="#2B2722" transform="translate(550,359)"/>
<path d="M0 0 C-2.68841859 2.25245881 -4.64641875 3.88213958 -8 5 C-7.625 3.0625 -7.625 3.0625 -7 1 C-4.53721199 -0.231394 -2.7204945 -0.07159196 0 0 Z " fill="#211C17" transform="translate(493,924)"/>
<path d="M0 0 C-2.68841859 2.25245881 -4.64641875 3.88213958 -8 5 C-7.625 3.0625 -7.625 3.0625 -7 1 C-4.53721199 -0.231394 -2.7204945 -0.07159196 0 0 Z " fill="#26201A" transform="translate(565,883)"/>
<path d="M0 0 C0.99 0.33 1.98 0.66 3 1 C-0.465 3.97 -0.465 3.97 -4 7 C-3.04065919 3.16263678 -2.76390737 2.40339772 0 0 Z " fill="#261F0B" transform="translate(837,636)"/>
<path d="M0 0 C0.99 0 1.98 0 3 0 C1.66666667 2.66666667 0.33333333 5.33333333 -1 8 C-1.66 8 -2.32 8 -3 8 C-1.125 2.25 -1.125 2.25 0 0 Z " fill="#272420" transform="translate(558,342)"/>
<path d="M0 0 C0.99 0.33 1.98 0.66 3 1 C1.515 4.465 1.515 4.465 0 8 C-0.66 7.67 -1.32 7.34 -2 7 C-1.34 4.69 -0.68 2.38 0 0 Z " fill="#221D16" transform="translate(861,912)"/>
<path d="M0 0 C0.66 0.33 1.32 0.66 2 1 C1.01 2.485 1.01 2.485 0 4 C-3.625 4.6875 -3.625 4.6875 -7 5 C-4.702779 3.25728062 -2.40133271 1.60088848 0 0 Z " fill="#E0D7C6" transform="translate(554,889)"/>
<path d="M0 0 C2.17766075 4.35532149 2.03039555 5.46625958 1 10 C0.34 10 -0.32 10 -1 10 C-0.67 6.7 -0.34 3.4 0 0 Z " fill="#CDA407" transform="translate(428,862)"/>
<path d="M0 0 C0.99 0.33 1.98 0.66 3 1 C1.37660195 2.70884005 -0.29319053 4.37446717 -2 6 C-2.66 6 -3.32 6 -4 6 C-2.84826645 3.53199953 -1.95216435 1.95216435 0 0 Z " fill="#F0E9D9" transform="translate(848,680)"/>
<path d="M0 0 C0.99 0.33 1.98 0.66 3 1 C0.36 2.98 -2.28 4.96 -5 7 C-3.38262276 3.76524552 -2.52370777 2.29427979 0 0 Z " fill="#F1E9DC" transform="translate(859,670)"/>
<path d="M0 0 C0.99 0.33 1.98 0.66 3 1 C1.37660195 2.70884005 -0.29319053 4.37446717 -2 6 C-2.66 6 -3.32 6 -4 6 C-2.84826645 3.53199953 -1.95216435 1.95216435 0 0 Z " fill="#EAE2D1" transform="translate(908,625)"/>
<path d="M0 0 C0.99 0.33 1.98 0.66 3 1 C0.03 3.475 0.03 3.475 -3 6 C-3.66 5.67 -4.32 5.34 -5 5 C-3.35 3.35 -1.7 1.7 0 0 Z " fill="#EAE3D4" transform="translate(918,616)"/>
<path d="M0 0 C0.66 0.33 1.32 0.66 2 1 C1.1875 2.9375 1.1875 2.9375 0 5 C-0.99 5.33 -1.98 5.66 -3 6 C-3 3 -3 3 -1.5 1.3125 C-0.7575 0.6628125 -0.7575 0.6628125 0 0 Z " fill="#201B15" transform="translate(289,498)"/>
</svg>
